<svg width="433" height="327" viewBox="0 0 433 327" fill="none" xmlns="http://www.w3.org/2000/svg">
<path d="M8.86 111.04L1.4 105.98V104.74L8.86 99.68V101.26L2.84 105.32V105.4L8.86 109.46V111.04Z" fill="#1D1D1D"/>
<path d="M15.9122 112.24C15.4588 112.24 15.0322 112.173 14.6322 112.04C14.2322 111.92 13.8788 111.747 13.5722 111.52C13.2788 111.28 13.0455 110.993 12.8722 110.66C12.6988 110.313 12.6122 109.92 12.6122 109.48C12.6122 108.933 12.7388 108.46 12.9922 108.06C13.2588 107.647 13.6722 107.293 14.2322 107C14.8055 106.707 15.5388 106.467 16.4322 106.28C17.3255 106.093 18.3989 105.947 19.6522 105.84C19.6388 105.507 19.5855 105.193 19.4922 104.9C19.3989 104.607 19.2522 104.353 19.0522 104.14C18.8522 103.913 18.5855 103.733 18.2522 103.6C17.9322 103.467 17.5389 103.4 17.0722 103.4C16.4322 103.4 15.8188 103.527 15.2322 103.78C14.6455 104.02 14.1255 104.28 13.6722 104.56L13.0322 103.44C13.2722 103.28 13.5522 103.12 13.8722 102.96C14.2055 102.787 14.5522 102.633 14.9122 102.5C15.2855 102.367 15.6788 102.26 16.0922 102.18C16.5055 102.087 16.9255 102.04 17.3522 102.04C18.6855 102.04 19.6722 102.407 20.3122 103.14C20.9655 103.86 21.2922 104.827 21.2922 106.04V112H19.9522L19.8122 110.68H19.7522C19.2055 111.107 18.5988 111.473 17.9322 111.78C17.2788 112.087 16.6055 112.24 15.9122 112.24ZM16.3522 110.92C16.9122 110.92 17.4589 110.8 17.9922 110.56C18.5389 110.307 19.0922 109.947 19.6522 109.48V106.92C18.6122 107 17.7388 107.113 17.0322 107.26C16.3388 107.407 15.7788 107.587 15.3522 107.8C14.9388 108 14.6455 108.233 14.4722 108.5C14.2988 108.753 14.2122 109.04 14.2122 109.36C14.2122 109.64 14.2722 109.88 14.3922 110.08C14.5122 110.267 14.6655 110.427 14.8522 110.56C15.0522 110.68 15.2788 110.773 15.5322 110.84C15.7988 110.893 16.0722 110.92 16.3522 110.92Z" fill="#1D1D1D"/>
<path d="M24.8444 116.1V102.28H26.2044L26.3444 103.52H26.4044C26.8577 103.093 27.3777 102.74 27.9644 102.46C28.5644 102.18 29.1644 102.04 29.7644 102.04C30.4177 102.04 30.991 102.16 31.4844 102.4C31.991 102.627 32.411 102.96 32.7444 103.4C33.091 103.827 33.351 104.347 33.5244 104.96C33.6977 105.56 33.7844 106.24 33.7844 107C33.7844 107.827 33.6644 108.567 33.4244 109.22C33.1844 109.86 32.8577 110.407 32.4444 110.86C32.0444 111.313 31.5777 111.66 31.0444 111.9C30.511 112.127 29.951 112.24 29.3644 112.24C28.911 112.24 28.4177 112.133 27.8844 111.92C27.3644 111.693 26.891 111.38 26.4644 110.98H26.4044L26.4844 112.82V116.1H24.8444ZM29.0844 110.86C29.9644 110.86 30.6844 110.52 31.2444 109.84C31.8044 109.16 32.0844 108.213 32.0844 107C32.0844 106.467 32.031 105.98 31.9244 105.54C31.8177 105.1 31.651 104.727 31.4244 104.42C31.211 104.1 30.931 103.853 30.5844 103.68C30.2377 103.507 29.8244 103.42 29.3444 103.42C28.9177 103.42 28.4577 103.54 27.9644 103.78C27.4844 104.007 26.991 104.373 26.4844 104.88V109.72C26.951 110.133 27.4177 110.427 27.8844 110.6C28.351 110.773 28.751 110.86 29.0844 110.86Z" fill="#1D1D1D"/>
<path d="M36.8366 116.1V102.28H38.1966L38.3366 103.52H38.3966C38.8499 103.093 39.3699 102.74 39.9566 102.46C40.5566 102.18 41.1566 102.04 41.7566 102.04C42.4099 102.04 42.9832 102.16 43.4766 102.4C43.9832 102.627 44.4032 102.96 44.7366 103.4C45.0832 103.827 45.3432 104.347 45.5166 104.96C45.6899 105.56 45.7766 106.24 45.7766 107C45.7766 107.827 45.6566 108.567 45.4166 109.22C45.1766 109.86 44.8499 110.407 44.4366 110.86C44.0366 111.313 43.5699 111.66 43.0366 111.9C42.5032 112.127 41.9432 112.24 41.3566 112.24C40.9032 112.24 40.4099 112.133 39.8766 111.92C39.3566 111.693 38.8832 111.38 38.4566 110.98H38.3966L38.4766 112.82V116.1H36.8366ZM41.0766 110.86C41.9566 110.86 42.6766 110.52 43.2366 109.84C43.7966 109.16 44.0766 108.213 44.0766 107C44.0766 106.467 44.0232 105.98 43.9166 105.54C43.8099 105.1 43.6432 104.727 43.4166 104.42C43.2032 104.1 42.9232 103.853 42.5766 103.68C42.2299 103.507 41.8166 103.42 41.3366 103.42C40.9099 103.42 40.4499 103.54 39.9566 103.78C39.4766 104.007 38.9832 104.373 38.4766 104.88V109.72C38.9432 110.133 39.4099 110.427 39.8766 110.6C40.3432 110.773 40.7432 110.86 41.0766 110.86Z" fill="#1D1D1D"/>
<path d="M55.1087 112.24C54.0687 112.24 53.2754 111.947 52.7287 111.36C52.1821 110.773 51.9087 109.9 51.9087 108.74V99.1H48.4487V97.76H53.5487V108.86C53.5487 109.58 53.7221 110.1 54.0687 110.42C54.4154 110.727 54.8821 110.88 55.4687 110.88C56.0421 110.88 56.6487 110.733 57.2887 110.44L57.7087 111.66C57.2554 111.847 56.8421 111.987 56.4687 112.08C56.0954 112.187 55.6421 112.24 55.1087 112.24Z" fill="#1D1D1D"/>
<path d="M65.5609 112.24C64.8276 112.24 64.1409 112.127 63.5009 111.9C62.8743 111.673 62.3209 111.34 61.8409 110.9C61.3743 110.46 61.0009 109.927 60.7209 109.3C60.4543 108.66 60.3209 107.933 60.3209 107.12C60.3209 106.333 60.4543 105.627 60.7209 105C61.0009 104.373 61.3676 103.84 61.8209 103.4C62.2876 102.96 62.8143 102.627 63.4009 102.4C64.0009 102.16 64.6276 102.04 65.2809 102.04C65.9743 102.04 66.5943 102.153 67.1409 102.38C67.7009 102.593 68.1676 102.9 68.5409 103.3C68.9276 103.7 69.2209 104.18 69.4209 104.74C69.6209 105.3 69.7209 105.92 69.7209 106.6C69.7209 106.787 69.7143 106.967 69.7009 107.14C69.6876 107.313 69.6676 107.467 69.6409 107.6H61.9809C62.0876 108.707 62.4876 109.54 63.1809 110.1C63.8876 110.647 64.7476 110.92 65.7609 110.92C66.3476 110.92 66.8743 110.84 67.3409 110.68C67.8209 110.507 68.2809 110.28 68.7209 110L69.3209 111.08C68.8409 111.4 68.2876 111.673 67.6609 111.9C67.0476 112.127 66.3476 112.24 65.5609 112.24ZM65.3209 103.34C64.9209 103.34 64.5343 103.407 64.1609 103.54C63.8009 103.673 63.4743 103.867 63.1809 104.12C62.8876 104.36 62.6409 104.667 62.4409 105.04C62.2409 105.413 62.1009 105.84 62.0209 106.32H68.2209C68.1543 105.32 67.8609 104.573 67.3409 104.08C66.8343 103.587 66.1609 103.34 65.3209 103.34Z" fill="#1D1D1D"/>
<path d="M73.0931 111.04V109.46L79.1131 105.4V105.32L73.0931 101.26V99.68L80.5531 104.74V105.98L73.0931 111.04Z" fill="#1D1D1D"/>
<path d="M8.86 136.04L1.4 130.98V129.74L8.86 124.68V126.26L2.84 130.32V130.4L8.86 134.46V136.04Z" fill="#1D1D1D"/>
<path d="M15.9122 137.24C15.4588 137.24 15.0322 137.173 14.6322 137.04C14.2322 136.92 13.8788 136.747 13.5722 136.52C13.2788 136.28 13.0455 135.993 12.8722 135.66C12.6988 135.313 12.6122 134.92 12.6122 134.48C12.6122 133.933 12.7388 133.46 12.9922 133.06C13.2588 132.647 13.6722 132.293 14.2322 132C14.8055 131.707 15.5388 131.467 16.4322 131.28C17.3255 131.093 18.3989 130.947 19.6522 130.84C19.6388 130.507 19.5855 130.193 19.4922 129.9C19.3989 129.607 19.2522 129.353 19.0522 129.14C18.8522 128.913 18.5855 128.733 18.2522 128.6C17.9322 128.467 17.5389 128.4 17.0722 128.4C16.4322 128.4 15.8188 128.527 15.2322 128.78C14.6455 129.02 14.1255 129.28 13.6722 129.56L13.0322 128.44C13.2722 128.28 13.5522 128.12 13.8722 127.96C14.2055 127.787 14.5522 127.633 14.9122 127.5C15.2855 127.367 15.6788 127.26 16.0922 127.18C16.5055 127.087 16.9255 127.04 17.3522 127.04C18.6855 127.04 19.6722 127.407 20.3122 128.14C20.9655 128.86 21.2922 129.827 21.2922 131.04V137H19.9522L19.8122 135.68H19.7522C19.2055 136.107 18.5988 136.473 17.9322 136.78C17.2788 137.087 16.6055 137.24 15.9122 137.24ZM16.3522 135.92C16.9122 135.92 17.4589 135.8 17.9922 135.56C18.5389 135.307 19.0922 134.947 19.6522 134.48V131.92C18.6122 132 17.7388 132.113 17.0322 132.26C16.3388 132.407 15.7788 132.587 15.3522 132.8C14.9388 133 14.6455 133.233 14.4722 133.5C14.2988 133.753 14.2122 134.04 14.2122 134.36C14.2122 134.64 14.2722 134.88 14.3922 135.08C14.5122 135.267 14.6655 135.427 14.8522 135.56C15.0522 135.68 15.2788 135.773 15.5322 135.84C15.7988 135.893 16.0722 135.92 16.3522 135.92Z" fill="#1D1D1D"/>
<path d="M24.8444 141.1V127.28H26.2044L26.3444 128.52H26.4044C26.8577 128.093 27.3777 127.74 27.9644 127.46C28.5644 127.18 29.1644 127.04 29.7644 127.04C30.4177 127.04 30.991 127.16 31.4844 127.4C31.991 127.627 32.411 127.96 32.7444 128.4C33.091 128.827 33.351 129.347 33.5244 129.96C33.6977 130.56 33.7844 131.24 33.7844 132C33.7844 132.827 33.6644 133.567 33.4244 134.22C33.1844 134.86 32.8577 135.407 32.4444 135.86C32.0444 136.313 31.5777 136.66 31.0444 136.9C30.511 137.127 29.951 137.24 29.3644 137.24C28.911 137.24 28.4177 137.133 27.8844 136.92C27.3644 136.693 26.891 136.38 26.4644 135.98H26.4044L26.4844 137.82V141.1H24.8444ZM29.0844 135.86C29.9644 135.86 30.6844 135.52 31.2444 134.84C31.8044 134.16 32.0844 133.213 32.0844 132C32.0844 131.467 32.031 130.98 31.9244 130.54C31.8177 130.1 31.651 129.727 31.4244 129.42C31.211 129.1 30.931 128.853 30.5844 128.68C30.2377 128.507 29.8244 128.42 29.3444 128.42C28.9177 128.42 28.4577 128.54 27.9644 128.78C27.4844 129.007 26.991 129.373 26.4844 129.88V134.72C26.951 135.133 27.4177 135.427 27.8844 135.6C28.351 135.773 28.751 135.86 29.0844 135.86Z" fill="#1D1D1D"/>
<path d="M36.8366 141.1V127.28H38.1966L38.3366 128.52H38.3966C38.8499 128.093 39.3699 127.74 39.9566 127.46C40.5566 127.18 41.1566 127.04 41.7566 127.04C42.4099 127.04 42.9832 127.16 43.4766 127.4C43.9832 127.627 44.4032 127.96 44.7366 128.4C45.0832 128.827 45.3432 129.347 45.5166 129.96C45.6899 130.56 45.7766 131.24 45.7766 132C45.7766 132.827 45.6566 133.567 45.4166 134.22C45.1766 134.86 44.8499 135.407 44.4366 135.86C44.0366 136.313 43.5699 136.66 43.0366 136.9C42.5032 137.127 41.9432 137.24 41.3566 137.24C40.9032 137.24 40.4099 137.133 39.8766 136.92C39.3566 136.693 38.8832 136.38 38.4566 135.98H38.3966L38.4766 137.82V141.1H36.8366ZM41.0766 135.86C41.9566 135.86 42.6766 135.52 43.2366 134.84C43.7966 134.16 44.0766 133.213 44.0766 132C44.0766 131.467 44.0232 130.98 43.9166 130.54C43.8099 130.1 43.6432 129.727 43.4166 129.42C43.2032 129.1 42.9232 128.853 42.5766 128.68C42.2299 128.507 41.8166 128.42 41.3366 128.42C40.9099 128.42 40.4499 128.54 39.9566 128.78C39.4766 129.007 38.9832 129.373 38.4766 129.88V134.72C38.9432 135.133 39.4099 135.427 39.8766 135.6C40.3432 135.773 40.7432 135.86 41.0766 135.86Z" fill="#1D1D1D"/>
<path d="M3.92 162.24C3.46666 162.24 3.04 162.173 2.64 162.04C2.24 161.92 1.88666 161.747 1.58 161.52C1.28666 161.28 1.05333 160.993 0.879995 160.66C0.706662 160.313 0.619995 159.92 0.619995 159.48C0.619995 158.933 0.746662 158.46 0.999995 158.06C1.26666 157.647 1.68 157.293 2.24 157C2.81333 156.707 3.54666 156.467 4.44 156.28C5.33333 156.093 6.40666 155.947 7.66 155.84C7.64666 155.507 7.59333 155.193 7.5 154.9C7.40666 154.607 7.26 154.353 7.06 154.14C6.86 153.913 6.59333 153.733 6.26 153.6C5.94 153.467 5.54666 153.4 5.08 153.4C4.44 153.4 3.82666 153.527 3.24 153.78C2.65333 154.02 2.13333 154.28 1.68 154.56L1.04 153.44C1.28 153.28 1.56 153.12 1.88 152.96C2.21333 152.787 2.56 152.633 2.92 152.5C3.29333 152.367 3.68666 152.26 4.1 152.18C4.51333 152.087 4.93333 152.04 5.36 152.04C6.69333 152.04 7.68 152.407 8.32 153.14C8.97333 153.86 9.3 154.827 9.3 156.04V162H7.96L7.82 160.68H7.76C7.21333 161.107 6.60666 161.473 5.94 161.78C5.28666 162.087 4.61333 162.24 3.92 162.24ZM4.36 160.92C4.92 160.92 5.46666 160.8 6 160.56C6.54666 160.307 7.1 159.947 7.66 159.48V156.92C6.62 157 5.74666 157.113 5.04 157.26C4.34666 157.407 3.78666 157.587 3.36 157.8C2.94666 158 2.65333 158.233 2.48 158.5C2.30666 158.753 2.22 159.04 2.22 159.36C2.22 159.64 2.28 159.88 2.4 160.08C2.52 160.267 2.67333 160.427 2.86 160.56C3.06 160.68 3.28666 160.773 3.54 160.84C3.80666 160.893 4.08 160.92 4.36 160.92Z" fill="#1D1D1D"/>
<path d="M12.8522 166.1V152.28H14.2122L14.3522 153.52H14.4122C14.8655 153.093 15.3855 152.74 15.9722 152.46C16.5722 152.18 17.1722 152.04 17.7722 152.04C18.4255 152.04 18.9989 152.16 19.4922 152.4C19.9989 152.627 20.4189 152.96 20.7522 153.4C21.0989 153.827 21.3588 154.347 21.5322 154.96C21.7055 155.56 21.7922 156.24 21.7922 157C21.7922 157.827 21.6722 158.567 21.4322 159.22C21.1922 159.86 20.8655 160.407 20.4522 160.86C20.0522 161.313 19.5855 161.66 19.0522 161.9C18.5188 162.127 17.9588 162.24 17.3722 162.24C16.9188 162.24 16.4255 162.133 15.8922 161.92C15.3722 161.693 14.8988 161.38 14.4722 160.98H14.4122L14.4922 162.82V166.1H12.8522ZM17.0922 160.86C17.9722 160.86 18.6922 160.52 19.2522 159.84C19.8122 159.16 20.0922 158.213 20.0922 157C20.0922 156.467 20.0388 155.98 19.9322 155.54C19.8255 155.1 19.6588 154.727 19.4322 154.42C19.2188 154.1 18.9388 153.853 18.5922 153.68C18.2455 153.507 17.8322 153.42 17.3522 153.42C16.9255 153.42 16.4655 153.54 15.9722 153.78C15.4922 154.007 14.9988 154.373 14.4922 154.88V159.72C14.9588 160.133 15.4255 160.427 15.8922 160.6C16.3588 160.773 16.7588 160.86 17.0922 160.86Z" fill="#1D1D1D"/>
<path d="M24.8444 166.1V152.28H26.2044L26.3444 153.52H26.4044C26.8577 153.093 27.3777 152.74 27.9644 152.46C28.5644 152.18 29.1644 152.04 29.7644 152.04C30.4177 152.04 30.991 152.16 31.4844 152.4C31.991 152.627 32.411 152.96 32.7444 153.4C33.091 153.827 33.351 154.347 33.5244 154.96C33.6977 155.56 33.7844 156.24 33.7844 157C33.7844 157.827 33.6644 158.567 33.4244 159.22C33.1844 159.86 32.8577 160.407 32.4444 160.86C32.0444 161.313 31.5777 161.66 31.0444 161.9C30.511 162.127 29.951 162.24 29.3644 162.24C28.911 162.24 28.4177 162.133 27.8844 161.92C27.3644 161.693 26.891 161.38 26.4644 160.98H26.4044L26.4844 162.82V166.1H24.8444ZM29.0844 160.86C29.9644 160.86 30.6844 160.52 31.2444 159.84C31.8044 159.16 32.0844 158.213 32.0844 157C32.0844 156.467 32.031 155.98 31.9244 155.54C31.8177 155.1 31.651 154.727 31.4244 154.42C31.211 154.1 30.931 153.853 30.5844 153.68C30.2377 153.507 29.8244 153.42 29.3444 153.42C28.9177 153.42 28.4577 153.54 27.9644 153.78C27.4844 154.007 26.991 154.373 26.4844 154.88V159.72C26.951 160.133 27.4177 160.427 27.8844 160.6C28.351 160.773 28.751 160.86 29.0844 160.86Z" fill="#1D1D1D"/>
<path d="M43.1166 162.24C42.0766 162.24 41.2832 161.947 40.7366 161.36C40.1899 160.773 39.9166 159.9 39.9166 158.74V149.1H36.4566V147.76H41.5566V158.86C41.5566 159.58 41.7299 160.1 42.0766 160.42C42.4232 160.727 42.8899 160.88 43.4766 160.88C44.0499 160.88 44.6566 160.733 45.2966 160.44L45.7166 161.66C45.2632 161.847 44.8499 161.987 44.4766 162.08C44.1032 162.187 43.6499 162.24 43.1166 162.24Z" fill="#1D1D1D"/>
<path d="M0.859995 191.1V177.28H2.22L2.36 178.52H2.42C2.87333 178.093 3.39333 177.74 3.98 177.46C4.58 177.18 5.18 177.04 5.78 177.04C6.43333 177.04 7.00666 177.16 7.5 177.4C8.00666 177.627 8.42666 177.96 8.76 178.4C9.10666 178.827 9.36666 179.347 9.54 179.96C9.71333 180.56 9.8 181.24 9.8 182C9.8 182.827 9.68 183.567 9.44 184.22C9.2 184.86 8.87333 185.407 8.46 185.86C8.06 186.313 7.59333 186.66 7.06 186.9C6.52666 187.127 5.96666 187.24 5.38 187.24C4.92666 187.24 4.43333 187.133 3.9 186.92C3.38 186.693 2.90666 186.38 2.48 185.98H2.42L2.5 187.82V191.1H0.859995ZM5.1 185.86C5.98 185.86 6.7 185.52 7.26 184.84C7.82 184.16 8.1 183.213 8.1 182C8.1 181.467 8.04666 180.98 7.94 180.54C7.83333 180.1 7.66666 179.727 7.44 179.42C7.22666 179.1 6.94666 178.853 6.6 178.68C6.25333 178.507 5.84 178.42 5.36 178.42C4.93333 178.42 4.47333 178.54 3.98 178.78C3.5 179.007 3.00666 179.373 2.5 179.88V184.72C2.96666 185.133 3.43333 185.427 3.9 185.6C4.36666 185.773 4.76666 185.86 5.1 185.86Z" fill="#1D1D1D"/>
<path d="M12.8522 191.1V177.28H14.2122L14.3522 178.52H14.4122C14.8655 178.093 15.3855 177.74 15.9722 177.46C16.5722 177.18 17.1722 177.04 17.7722 177.04C18.4255 177.04 18.9989 177.16 19.4922 177.4C19.9989 177.627 20.4189 177.96 20.7522 178.4C21.0989 178.827 21.3588 179.347 21.5322 179.96C21.7055 180.56 21.7922 181.24 21.7922 182C21.7922 182.827 21.6722 183.567 21.4322 184.22C21.1922 184.86 20.8655 185.407 20.4522 185.86C20.0522 186.313 19.5855 186.66 19.0522 186.9C18.5188 187.127 17.9588 187.24 17.3722 187.24C16.9188 187.24 16.4255 187.133 15.8922 186.92C15.3722 186.693 14.8988 186.38 14.4722 185.98H14.4122L14.4922 187.82V191.1H12.8522ZM17.0922 185.86C17.9722 185.86 18.6922 185.52 19.2522 184.84C19.8122 184.16 20.0922 183.213 20.0922 182C20.0922 181.467 20.0388 180.98 19.9322 180.54C19.8255 180.1 19.6588 179.727 19.4322 179.42C19.2188 179.1 18.9388 178.853 18.5922 178.68C18.2455 178.507 17.8322 178.42 17.3522 178.42C16.9255 178.42 16.4655 178.54 15.9722 178.78C15.4922 179.007 14.9988 179.373 14.4922 179.88V184.72C14.9588 185.133 15.4255 185.427 15.8922 185.6C16.3588 185.773 16.7588 185.86 17.0922 185.86Z" fill="#1D1D1D"/>
<path d="M31.1244 187.24C30.0844 187.24 29.291 186.947 28.7444 186.36C28.1977 185.773 27.9244 184.9 27.9244 183.74V174.1H24.4644V172.76H29.5644V183.86C29.5644 184.58 29.7377 185.1 30.0844 185.42C30.431 185.727 30.8977 185.88 31.4844 185.88C32.0577 185.88 32.6644 185.733 33.3044 185.44L33.7244 186.66C33.271 186.847 32.8577 186.987 32.4844 187.08C32.111 187.187 31.6577 187.24 31.1244 187.24Z" fill="#1D1D1D"/>
<path d="M41.5766 187.24C40.8432 187.24 40.1566 187.127 39.5166 186.9C38.8899 186.673 38.3366 186.34 37.8566 185.9C37.3899 185.46 37.0166 184.927 36.7366 184.3C36.4699 183.66 36.3366 182.933 36.3366 182.12C36.3366 181.333 36.4699 180.627 36.7366 180C37.0166 179.373 37.3832 178.84 37.8366 178.4C38.3032 177.96 38.8299 177.627 39.4166 177.4C40.0166 177.16 40.6432 177.04 41.2966 177.04C41.9899 177.04 42.6099 177.153 43.1566 177.38C43.7166 177.593 44.1832 177.9 44.5566 178.3C44.9432 178.7 45.2366 179.18 45.4366 179.74C45.6366 180.3 45.7366 180.92 45.7366 181.6C45.7366 181.787 45.7299 181.967 45.7166 182.14C45.7032 182.313 45.6832 182.467 45.6566 182.6H37.9966C38.1032 183.707 38.5032 184.54 39.1966 185.1C39.9032 185.647 40.7632 185.92 41.7766 185.92C42.3632 185.92 42.8899 185.84 43.3566 185.68C43.8366 185.507 44.2966 185.28 44.7366 185L45.3366 186.08C44.8566 186.4 44.3032 186.673 43.6766 186.9C43.0632 187.127 42.3632 187.24 41.5766 187.24ZM41.3366 178.34C40.9366 178.34 40.5499 178.407 40.1766 178.54C39.8166 178.673 39.4899 178.867 39.1966 179.12C38.9032 179.36 38.6566 179.667 38.4566 180.04C38.2566 180.413 38.1166 180.84 38.0366 181.32H44.2366C44.1699 180.32 43.8766 179.573 43.3566 179.08C42.8499 178.587 42.1766 178.34 41.3366 178.34Z" fill="#1D1D1D"/>
<path d="M0.859995 216.1V202.28H2.22L2.36 203.52H2.42C2.87333 203.093 3.39333 202.74 3.98 202.46C4.58 202.18 5.18 202.04 5.78 202.04C6.43333 202.04 7.00666 202.16 7.5 202.4C8.00666 202.627 8.42666 202.96 8.76 203.4C9.10666 203.827 9.36666 204.347 9.54 204.96C9.71333 205.56 9.8 206.24 9.8 207C9.8 207.827 9.68 208.567 9.44 209.22C9.2 209.86 8.87333 210.407 8.46 210.86C8.06 211.313 7.59333 211.66 7.06 211.9C6.52666 212.127 5.96666 212.24 5.38 212.24C4.92666 212.24 4.43333 212.133 3.9 211.92C3.38 211.693 2.90666 211.38 2.48 210.98H2.42L2.5 212.82V216.1H0.859995ZM5.1 210.86C5.98 210.86 6.7 210.52 7.26 209.84C7.82 209.16 8.1 208.213 8.1 207C8.1 206.467 8.04666 205.98 7.94 205.54C7.83333 205.1 7.66666 204.727 7.44 204.42C7.22666 204.1 6.94666 203.853 6.6 203.68C6.25333 203.507 5.84 203.42 5.36 203.42C4.93333 203.42 4.47333 203.54 3.98 203.78C3.5 204.007 3.00666 204.373 2.5 204.88V209.72C2.96666 210.133 3.43333 210.427 3.9 210.6C4.36666 210.773 4.76666 210.86 5.1 210.86Z" fill="#1D1D1D"/>
<path d="M19.1322 212.24C18.0922 212.24 17.2988 211.947 16.7522 211.36C16.2055 210.773 15.9322 209.9 15.9322 208.74V199.1H12.4722V197.76H17.5722V208.86C17.5722 209.58 17.7455 210.1 18.0922 210.42C18.4388 210.727 18.9055 210.88 19.4922 210.88C20.0655 210.88 20.6722 210.733 21.3122 210.44L21.7322 211.66C21.2789 211.847 20.8655 211.987 20.4922 212.08C20.1189 212.187 19.6655 212.24 19.1322 212.24Z" fill="#1D1D1D"/>
<path d="M29.5844 212.24C28.851 212.24 28.1644 212.127 27.5244 211.9C26.8977 211.673 26.3444 211.34 25.8644 210.9C25.3977 210.46 25.0244 209.927 24.7444 209.3C24.4777 208.66 24.3444 207.933 24.3444 207.12C24.3444 206.333 24.4777 205.627 24.7444 205C25.0244 204.373 25.391 203.84 25.8444 203.4C26.311 202.96 26.8377 202.627 27.4244 202.4C28.0244 202.16 28.651 202.04 29.3044 202.04C29.9977 202.04 30.6177 202.153 31.1644 202.38C31.7244 202.593 32.191 202.9 32.5644 203.3C32.951 203.7 33.2444 204.18 33.4444 204.74C33.6444 205.3 33.7444 205.92 33.7444 206.6C33.7444 206.787 33.7377 206.967 33.7244 207.14C33.711 207.313 33.691 207.467 33.6644 207.6H26.0044C26.111 208.707 26.511 209.54 27.2044 210.1C27.911 210.647 28.771 210.92 29.7844 210.92C30.371 210.92 30.8977 210.84 31.3644 210.68C31.8444 210.507 32.3044 210.28 32.7444 210L33.3444 211.08C32.8644 211.4 32.311 211.673 31.6844 211.9C31.071 212.127 30.371 212.24 29.5844 212.24ZM29.3444 203.34C28.9444 203.34 28.5577 203.407 28.1844 203.54C27.8244 203.673 27.4977 203.867 27.2044 204.12C26.911 204.36 26.6644 204.667 26.4644 205.04C26.2644 205.413 26.1244 205.84 26.0444 206.32H32.2444C32.1777 205.32 31.8844 204.573 31.3644 204.08C30.8577 203.587 30.1844 203.34 29.3444 203.34Z" fill="#1D1D1D"/>
<path d="M37.1166 211.04V209.46L43.1366 205.4V205.32L37.1166 201.26V199.68L44.5766 204.74V205.98L37.1166 211.04Z" fill="#1D1D1D"/>
<path d="M278.011 4.12H276.671L274.851 10.9L272.891 4.12H271.391L274.011 13H275.471L277.331 6.26L279.171 13H280.631L283.251 4.12H281.791L279.831 10.9L278.011 4.12Z" fill="#1D1D1D"/>
<path d="M292.469 8.56C292.469 5.84 290.809 3.94 288.389 3.94C285.949 3.94 284.309 5.84 284.309 8.56C284.309 11.28 285.949 13.18 288.389 13.18C290.809 13.18 292.469 11.28 292.469 8.56ZM290.949 8.56C290.949 10.5 289.989 11.86 288.389 11.86C286.789 11.86 285.829 10.5 285.829 8.56C285.829 6.62 286.789 5.26 288.389 5.26C289.989 5.26 290.949 6.62 290.949 8.56Z" fill="#1D1D1D"/>
<path d="M299.06 4.08C298.9 4 298.58 3.94 298.2 3.94C297.22 3.94 296.38 4.52 296 5.28V4.12H294.5V13H296V7.04C296.3 6 297.12 5.38 298.06 5.38C298.44 5.38 298.82 5.46 299.06 5.62V4.08Z" fill="#1D1D1D"/>
<path d="M306.532 13H308.052V0H306.532V5.16C306.092 4.52 305.132 3.94 304.032 3.94C301.432 3.94 300.032 6.06 300.032 8.56C300.032 11.08 301.432 13.18 304.032 13.18C305.132 13.18 306.092 12.6 306.532 11.96V13ZM306.532 10.36C306.072 11.28 305.192 11.82 304.252 11.82C302.552 11.82 301.552 10.44 301.552 8.56C301.552 6.68 302.552 5.3 304.252 5.3C305.192 5.3 306.072 5.84 306.532 6.76V10.36Z" fill="#1D1D1D"/>
<path d="M309.971 10.56C310.251 12.2 311.671 13.18 313.611 13.18C315.511 13.18 316.911 12.18 316.911 10.5C316.911 9.26 316.171 8.42 314.651 8.02L312.931 7.6C312.091 7.36 311.691 7.08 311.691 6.48C311.691 5.62 312.511 5.2 313.391 5.2C314.471 5.2 315.091 5.66 315.351 6.46H316.851C316.531 4.9 315.371 3.94 313.411 3.94C311.611 3.94 310.231 4.98 310.231 6.56C310.231 7.94 311.111 8.58 312.371 8.9L314.131 9.36C315.051 9.6 315.451 9.98 315.451 10.6C315.451 11.5 314.691 11.92 313.631 11.92C312.591 11.92 311.811 11.48 311.531 10.56H309.971Z" fill="#1D1D1D"/>
<path d="M326.846 3.12V6.44H323.526V7.68H326.846V11H328.086V7.68H331.406V6.44H328.086V3.12H326.846Z" fill="#1D1D1D"/>
<path d="M337.881 10.56C338.161 12.2 339.581 13.18 341.521 13.18C343.421 13.18 344.821 12.18 344.821 10.5C344.821 9.26 344.081 8.42 342.561 8.02L340.841 7.6C340.001 7.36 339.601 7.08 339.601 6.48C339.601 5.62 340.421 5.2 341.301 5.2C342.381 5.2 343.001 5.66 343.261 6.46H344.761C344.441 4.9 343.281 3.94 341.321 3.94C339.521 3.94 338.141 4.98 338.141 6.56C338.141 7.94 339.021 8.58 340.281 8.9L342.041 9.36C342.961 9.6 343.361 9.98 343.361 10.6C343.361 11.5 342.601 11.92 341.541 11.92C340.501 11.92 339.721 11.48 339.441 10.56H337.881Z" fill="#1D1D1D"/>
<path d="M353.982 4.12H352.462V10.14C352.142 11.1 351.282 11.8 350.242 11.8C348.902 11.8 348.302 10.94 348.302 9.7V4.12H346.783V9.94C346.783 11.88 347.863 13.18 349.883 13.18C351.023 13.18 351.962 12.58 352.462 11.88V13H353.982V4.12Z" fill="#1D1D1D"/>
<path d="M358.149 11.96C358.589 12.6 359.549 13.18 360.649 13.18C363.249 13.18 364.649 11.08 364.649 8.56C364.649 6.06 363.249 3.94 360.649 3.94C359.549 3.94 358.589 4.52 358.149 5.16V0H356.629V13H358.149V11.96ZM358.149 6.76C358.609 5.84 359.489 5.3 360.429 5.3C362.129 5.3 363.129 6.68 363.129 8.56C363.129 10.44 362.129 11.82 360.429 11.82C359.489 11.82 358.609 11.28 358.149 10.36V6.76Z" fill="#1D1D1D"/>
<path d="M372.328 4.12H370.988L369.168 10.9L367.208 4.12H365.708L368.328 13H369.788L371.648 6.26L373.488 13H374.948L377.568 4.12H376.108L374.148 10.9L372.328 4.12Z" fill="#1D1D1D"/>
<path d="M386.786 8.56C386.786 5.84 385.126 3.94 382.706 3.94C380.266 3.94 378.626 5.84 378.626 8.56C378.626 11.28 380.266 13.18 382.706 13.18C385.126 13.18 386.786 11.28 386.786 8.56ZM385.266 8.56C385.266 10.5 384.306 11.86 382.706 11.86C381.106 11.86 380.146 10.5 380.146 8.56C380.146 6.62 381.106 5.26 382.706 5.26C384.306 5.26 385.266 6.62 385.266 8.56Z" fill="#1D1D1D"/>
<path d="M393.377 4.08C393.217 4 392.897 3.94 392.517 3.94C391.537 3.94 390.697 4.52 390.317 5.28V4.12H388.817V13H390.317V7.04C390.617 6 391.437 5.38 392.377 5.38C392.757 5.38 393.137 5.46 393.377 5.62V4.08Z" fill="#1D1D1D"/>
<path d="M400.848 13H402.368V0H400.848V5.16C400.408 4.52 399.448 3.94 398.348 3.94C395.748 3.94 394.348 6.06 394.348 8.56C394.348 11.08 395.748 13.18 398.348 13.18C399.448 13.18 400.408 12.6 400.848 11.96V13ZM400.848 10.36C400.388 11.28 399.508 11.82 398.568 11.82C396.868 11.82 395.868 10.44 395.868 8.56C395.868 6.68 396.868 5.3 398.568 5.3C399.508 5.3 400.388 5.84 400.848 6.76V10.36Z" fill="#1D1D1D"/>
<path d="M404.288 10.56C404.568 12.2 405.987 13.18 407.927 13.18C409.827 13.18 411.228 12.18 411.228 10.5C411.228 9.26 410.487 8.42 408.967 8.02L407.247 7.6C406.407 7.36 406.008 7.08 406.008 6.48C406.008 5.62 406.827 5.2 407.707 5.2C408.787 5.2 409.407 5.66 409.667 6.46H411.167C410.847 4.9 409.688 3.94 407.728 3.94C405.928 3.94 404.547 4.98 404.547 6.56C404.547 7.94 405.428 8.58 406.688 8.9L408.448 9.36C409.368 9.6 409.767 9.98 409.767 10.6C409.767 11.5 409.008 11.92 407.948 11.92C406.908 11.92 406.128 11.48 405.848 10.56H404.288Z" fill="#1D1D1D"/>
<rect x="244.5" y="206.5" width="188" height="14" fill="#F8F1DA" stroke="#F5CE5F"/>
<rect x="244.5" y="305.5" width="188" height="14" fill="#F8F1DA" stroke="#F5CE5F"/>
<rect x="244.5" y="277.5" width="188" height="14" fill="#F8F1DA" stroke="#F5CE5F"/>
<rect x="244.5" y="126.5" width="188" height="14" fill="#F8F1DA" stroke="#F5CE5F"/>
<rect x="244.5" y="26.5" width="188" height="14" fill="#F8F1DA" stroke="#F5CE5F"/>
<rect x="245" y="19" width="187" height="307" stroke="black" stroke-width="2"/>
<circle cx="141.5" cy="137.5" r="6.5" fill="white"/>
<circle cx="141.5" cy="79.5" r="6.5" fill="white"/>
<circle cx="141.5" cy="203.5" r="6.5" fill="white"/>
<ellipse cx="141" cy="122" rx="7" ry="4" fill="white"/>
<path d="M94 204H95V203H94V204ZM94 313.5H93V314.5H94V313.5ZM238.5 313.5L228.5 307.726V319.274L238.5 313.5ZM59 205H94V203H59V205ZM93 204V313.5H95V204H93ZM94 314.5H229.5V312.5H94V314.5Z" fill="#AFAFAF"/>
<path d="M118 181H119V180H118V181ZM118 284H117V285H118V284ZM236 284L226 278.226V289.774L236 284ZM59 182H118V180H59V182ZM117 181V284H119V181H117ZM118 285H227V283H118V285Z" fill="#AFAFAF"/>
<path d="M187.804 108H188.804V107H187.804V108ZM187.804 214H186.804V215H187.804V214ZM238 214L228 208.227V219.774L238 214ZM85 109H187.804V107H85V109ZM186.804 108V214H188.804V108H186.804ZM187.804 215H229V213H187.804V215Z" fill="#AFAFAF"/>
<circle cx="189.5" cy="133.5" r="6.5" fill="white"/>
<circle cx="117.5" cy="107.5" r="6.5" fill="white"/>
<path d="M235.5 133.5L225.5 127.726V139.274L235.5 133.5ZM56.5 134.5H102.5V132.5H56.5V134.5ZM102.5 134.5H126V132.5H102.5V134.5ZM126 134.5H226.5V132.5H126V134.5Z" fill="#AFAFAF"/>
<circle cx="117.5" cy="133.5" r="6.5" fill="white"/>
<path d="M118 157H119V158H118V157ZM118 33H117V32H118V33ZM236 33L226 38.7735V27.2265L236 33ZM59 156H118V158H59V156ZM117 157V33H119V157H117ZM118 32H227V34H118V32Z" fill="#AFAFAF"/>
</svg>
