<svg width="1383" height="326" viewBox="0 0 1383 326" fill="none" xmlns="http://www.w3.org/2000/svg">
<rect x="1194.5" y="205.5" width="188" height="14" fill="#F8F1DA" stroke="#F5CE5F"/>
<rect x="1194.5" y="304.5" width="188" height="14" fill="#F8F1DA" stroke="#F5CE5F"/>
<rect x="1194.5" y="276.5" width="188" height="14" fill="#F8F1DA" stroke="#F5CE5F"/>
<rect x="1194.5" y="253.5" width="188" height="14" fill="#D5ECDC" stroke="#0BB057"/>
<rect x="1194.5" y="53.5" width="188" height="14" fill="#D5ECDC" stroke="#0BB057"/>
<rect x="1194.5" y="83.5" width="188" height="14" fill="#D5ECDC" stroke="#0BB057"/>
<rect x="1194.5" y="153.5" width="188" height="14" fill="#D5ECDC" stroke="#0BB057"/>
<rect x="1194.5" y="173.5" width="188" height="14" fill="#D5ECDC" stroke="#0BB057"/>
<rect x="1194.5" y="125.5" width="188" height="14" fill="#F8F1DA" stroke="#F5CE5F"/>
<rect x="1194.5" y="25.5" width="188" height="14" fill="#F8F1DA" stroke="#F5CE5F"/>
<rect x="1195" y="18" width="187" height="307" stroke="black" stroke-width="2"/>
<circle cx="1091.5" cy="136.5" r="6.5" fill="white"/>
<circle cx="1091.5" cy="78.5" r="6.5" fill="white"/>
<circle cx="1091.5" cy="202.5" r="6.5" fill="white"/>
<ellipse cx="1091" cy="121" rx="7" ry="4" fill="white"/>
<path d="M1044 203H1045V202H1044V203ZM1044 312.5H1043V313.5H1044V312.5ZM1188.5 312.5L1178.5 306.726V318.274L1188.5 312.5ZM1009 204H1044V202H1009V204ZM1043 203V312.5H1045V203H1043ZM1044 313.5H1179.5V311.5H1044V313.5Z" fill="#AFAFAF"/>
<path d="M1069 180H1070V179H1069V180ZM1069 284H1068V285H1069V284ZM1189 284L1179 278.227V289.774L1189 284ZM1009 181H1069V179H1009V181ZM1068 180V284H1070V180H1068ZM1069 285H1180V283H1069V285Z" fill="#AFAFAF"/>
<circle cx="1067.5" cy="106.5" r="6.5" fill="white"/>
<path d="M1185.5 132.5L1175.5 126.726V138.274L1185.5 132.5ZM1006.5 133.5H1052.5V131.5H1006.5V133.5ZM1052.5 133.5H1076V131.5H1052.5V133.5ZM1076 133.5H1176.5V131.5H1076V133.5Z" fill="#AFAFAF"/>
<circle cx="1067.5" cy="132.5" r="6.5" fill="white"/>
<path d="M1185.5 62L1175.5 56.2265V67.7735L1185.5 62ZM1176.5 61H1068V63H1176.5V61Z" fill="#AFAFAF"/>
<circle cx="1137.5" cy="132.5" r="6.5" fill="white"/>
<circle cx="1069.5" cy="203.5" r="6.5" fill="white"/>
<path d="M1186 91L1176 85.2265V96.7735L1186 91ZM1138 91V90H1137V91H1138ZM1177 90H1138V92H1177V90ZM1137 91V107H1139V91H1137Z" fill="#AFAFAF"/>
<path d="M1186 162L1176 156.226V167.774L1186 162ZM1092 162H1091V163H1092V162ZM1177 161H1092V163H1177V161ZM1093 162V133H1091V162H1093Z" fill="#AFAFAF"/>
<path d="M1188 261.008L1178.02 255.193L1177.98 266.74L1188 261.008ZM1179 259.97L1068 259.5L1068 261.5L1179 261.97L1179 259.97Z" fill="#AFAFAF"/>
<path d="M1111.36 203V204H1112.36V203H1111.36ZM1111.36 181V180H1110.36V181H1111.36ZM1189 181L1179 175.226V186.774L1189 181ZM1044 204H1111.36V202H1044V204ZM1112.36 203V181H1110.36V203H1112.36ZM1111.36 182H1180V180H1111.36V182Z" fill="#AFAFAF"/>
<circle cx="1138.5" cy="181.5" r="6.5" fill="white"/>
<circle cx="1137.5" cy="161.5" r="6.5" fill="white"/>
<path d="M1137.8 107H1138.8V106H1137.8V107ZM1137.8 213H1136.8V214H1137.8V213ZM1188 213L1178 207.227V218.774L1188 213ZM1035 108H1137.8V106H1035V108ZM1136.8 107V213H1138.8V107H1136.8ZM1137.8 214H1179V212H1137.8V214Z" fill="#AFAFAF"/>
<circle cx="1067.5" cy="106.5" r="6.5" fill="white"/>
<path d="M1068 156H1069V157H1068V156ZM1068 32H1067V31H1068V32ZM1186 32L1176 37.7735V26.2265L1186 32ZM1009 155H1068V157H1009V155ZM1067 156V32H1069V156H1067ZM1068 31H1177V33H1068V31Z" fill="#AFAFAF"/>
<rect x="713.5" y="253.5" width="188" height="14" fill="#D5ECDC" stroke="#0BB057"/>
<rect x="713.5" y="53.5" width="188" height="14" fill="#D5ECDC" stroke="#0BB057"/>
<rect x="713.5" y="83.5" width="188" height="14" fill="#D5ECDC" stroke="#0BB057"/>
<rect x="713.5" y="153.5" width="188" height="14" fill="#D5ECDC" stroke="#0BB057"/>
<rect x="713.5" y="173.5" width="188" height="14" fill="#D5ECDC" stroke="#0BB057"/>
<rect x="714" y="18" width="187" height="307" stroke="black" stroke-width="2"/>
<circle cx="610.5" cy="136.5" r="6.5" fill="white"/>
<circle cx="610.5" cy="78.5" r="6.5" fill="white"/>
<circle cx="610.5" cy="202.5" r="6.5" fill="white"/>
<ellipse cx="610" cy="121" rx="7" ry="4" fill="white"/>
<path d="M528 204H563V202H528V204Z" fill="#AFAFAF"/>
<path d="M528 180H588V260.5" stroke="#AFAFAF" stroke-width="2"/>
<circle cx="586.5" cy="106.5" r="6.5" fill="white"/>
<path d="M525.5 132.5L553.126 132.626L567.239 132.691L633 132.991" stroke="#AFAFAF" stroke-width="2"/>
<circle cx="586.5" cy="132.5" r="6.5" fill="white"/>
<path d="M704.5 62L694.5 56.2265V67.7735L704.5 62ZM695.5 61H587V63H695.5V61Z" fill="#AFAFAF"/>
<circle cx="588.5" cy="203.5" r="6.5" fill="white"/>
<path d="M705 91L695 85.2265V96.7735L705 91ZM657 91V90H656V91H657ZM696 90H657V92H696V90ZM656 91V107H658V91H656Z" fill="#AFAFAF"/>
<path d="M705 162L695 156.226V167.774L705 162ZM633 162H632V163H633V162ZM696 161H633V163H696V161ZM634 162V133H632V162H634Z" fill="#AFAFAF"/>
<path d="M707 261.008L697.025 255.193L696.976 266.74L707 261.008ZM698.004 259.97L587.004 259.5L586.996 261.5L697.996 261.97L698.004 259.97Z" fill="#AFAFAF"/>
<path d="M630.358 203V204H631.358V203H630.358ZM630.358 181V180H629.358V181H630.358ZM708 181L698 175.226V186.774L708 181ZM563 204H630.358V202H563V204ZM631.358 203V181H629.358V203H631.358ZM630.358 182H699V180H630.358V182Z" fill="#AFAFAF"/>
<path d="M554 108H656.804V106H554V108Z" fill="#AFAFAF"/>
<circle cx="586.5" cy="106.5" r="6.5" fill="white"/>
<path d="M587 156H588V157H587V156ZM528 155H587V157H528V155ZM586 156V61H588V156H586Z" fill="#AFAFAF"/>
<path d="M958.86 110.04L951.4 104.98V103.74L958.86 98.68V100.26L952.84 104.32V104.4L958.86 108.46V110.04Z" fill="#1D1D1D"/>
<path d="M965.912 111.24C965.459 111.24 965.032 111.173 964.632 111.04C964.232 110.92 963.879 110.747 963.572 110.52C963.279 110.28 963.046 109.993 962.872 109.66C962.699 109.313 962.612 108.92 962.612 108.48C962.612 107.933 962.739 107.46 962.992 107.06C963.259 106.647 963.672 106.293 964.232 106C964.806 105.707 965.539 105.467 966.432 105.28C967.326 105.093 968.399 104.947 969.652 104.84C969.639 104.507 969.586 104.193 969.492 103.9C969.399 103.607 969.252 103.353 969.052 103.14C968.852 102.913 968.586 102.733 968.252 102.6C967.932 102.467 967.539 102.4 967.072 102.4C966.432 102.4 965.819 102.527 965.232 102.78C964.646 103.02 964.126 103.28 963.672 103.56L963.032 102.44C963.272 102.28 963.552 102.12 963.872 101.96C964.206 101.787 964.552 101.633 964.912 101.5C965.286 101.367 965.679 101.26 966.092 101.18C966.505 101.087 966.926 101.04 967.352 101.04C968.686 101.04 969.672 101.407 970.312 102.14C970.966 102.86 971.292 103.827 971.292 105.04V111H969.952L969.812 109.68H969.752C969.206 110.107 968.599 110.473 967.932 110.78C967.279 111.087 966.606 111.24 965.912 111.24ZM966.352 109.92C966.912 109.92 967.459 109.8 967.992 109.56C968.539 109.307 969.092 108.947 969.652 108.48V105.92C968.612 106 967.739 106.113 967.032 106.26C966.339 106.407 965.779 106.587 965.352 106.8C964.939 107 964.646 107.233 964.472 107.5C964.299 107.753 964.212 108.04 964.212 108.36C964.212 108.64 964.272 108.88 964.392 109.08C964.512 109.267 964.666 109.427 964.852 109.56C965.052 109.68 965.279 109.773 965.532 109.84C965.799 109.893 966.072 109.92 966.352 109.92Z" fill="#1D1D1D"/>
<path d="M974.844 115.1V101.28H976.204L976.344 102.52H976.404C976.858 102.093 977.378 101.74 977.964 101.46C978.564 101.18 979.164 101.04 979.764 101.04C980.418 101.04 980.991 101.16 981.484 101.4C981.991 101.627 982.411 101.96 982.744 102.4C983.091 102.827 983.351 103.347 983.524 103.96C983.698 104.56 983.784 105.24 983.784 106C983.784 106.827 983.664 107.567 983.424 108.22C983.184 108.86 982.858 109.407 982.444 109.86C982.044 110.313 981.578 110.66 981.044 110.9C980.511 111.127 979.951 111.24 979.364 111.24C978.911 111.24 978.418 111.133 977.884 110.92C977.364 110.693 976.891 110.38 976.464 109.98H976.404L976.484 111.82V115.1H974.844ZM979.084 109.86C979.964 109.86 980.684 109.52 981.244 108.84C981.804 108.16 982.084 107.213 982.084 106C982.084 105.467 982.031 104.98 981.924 104.54C981.818 104.1 981.651 103.727 981.424 103.42C981.211 103.1 980.931 102.853 980.584 102.68C980.238 102.507 979.824 102.42 979.344 102.42C978.918 102.42 978.458 102.54 977.964 102.78C977.484 103.007 976.991 103.373 976.484 103.88V108.72C976.951 109.133 977.418 109.427 977.884 109.6C978.351 109.773 978.751 109.86 979.084 109.86Z" fill="#1D1D1D"/>
<path d="M986.837 115.1V101.28H988.197L988.337 102.52H988.397C988.85 102.093 989.37 101.74 989.957 101.46C990.557 101.18 991.157 101.04 991.757 101.04C992.41 101.04 992.983 101.16 993.477 101.4C993.983 101.627 994.403 101.96 994.737 102.4C995.083 102.827 995.343 103.347 995.517 103.96C995.69 104.56 995.777 105.24 995.777 106C995.777 106.827 995.657 107.567 995.417 108.22C995.177 108.86 994.85 109.407 994.437 109.86C994.037 110.313 993.57 110.66 993.037 110.9C992.503 111.127 991.943 111.24 991.357 111.24C990.903 111.24 990.41 111.133 989.877 110.92C989.357 110.693 988.883 110.38 988.457 109.98H988.397L988.477 111.82V115.1H986.837ZM991.077 109.86C991.957 109.86 992.677 109.52 993.237 108.84C993.797 108.16 994.077 107.213 994.077 106C994.077 105.467 994.023 104.98 993.917 104.54C993.81 104.1 993.643 103.727 993.417 103.42C993.203 103.1 992.923 102.853 992.577 102.68C992.23 102.507 991.817 102.42 991.337 102.42C990.91 102.42 990.45 102.54 989.957 102.78C989.477 103.007 988.983 103.373 988.477 103.88V108.72C988.943 109.133 989.41 109.427 989.877 109.6C990.343 109.773 990.743 109.86 991.077 109.86Z" fill="#1D1D1D"/>
<path d="M1005.11 111.24C1004.07 111.24 1003.28 110.947 1002.73 110.36C1002.18 109.773 1001.91 108.9 1001.91 107.74V98.1H998.449V96.76H1003.55V107.86C1003.55 108.58 1003.72 109.1 1004.07 109.42C1004.42 109.727 1004.88 109.88 1005.47 109.88C1006.04 109.88 1006.65 109.733 1007.29 109.44L1007.71 110.66C1007.26 110.847 1006.84 110.987 1006.47 111.08C1006.1 111.187 1005.64 111.24 1005.11 111.24Z" fill="#1D1D1D"/>
<path d="M1015.56 111.24C1014.83 111.24 1014.14 111.127 1013.5 110.9C1012.87 110.673 1012.32 110.34 1011.84 109.9C1011.37 109.46 1011 108.927 1010.72 108.3C1010.45 107.66 1010.32 106.933 1010.32 106.12C1010.32 105.333 1010.45 104.627 1010.72 104C1011 103.373 1011.37 102.84 1011.82 102.4C1012.29 101.96 1012.81 101.627 1013.4 101.4C1014 101.16 1014.63 101.04 1015.28 101.04C1015.97 101.04 1016.59 101.153 1017.14 101.38C1017.7 101.593 1018.17 101.9 1018.54 102.3C1018.93 102.7 1019.22 103.18 1019.42 103.74C1019.62 104.3 1019.72 104.92 1019.72 105.6C1019.72 105.787 1019.71 105.967 1019.7 106.14C1019.69 106.313 1019.67 106.467 1019.64 106.6H1011.98C1012.09 107.707 1012.49 108.54 1013.18 109.1C1013.89 109.647 1014.75 109.92 1015.76 109.92C1016.35 109.92 1016.87 109.84 1017.34 109.68C1017.82 109.507 1018.28 109.28 1018.72 109L1019.32 110.08C1018.84 110.4 1018.29 110.673 1017.66 110.9C1017.05 111.127 1016.35 111.24 1015.56 111.24ZM1015.32 102.34C1014.92 102.34 1014.53 102.407 1014.16 102.54C1013.8 102.673 1013.47 102.867 1013.18 103.12C1012.89 103.36 1012.64 103.667 1012.44 104.04C1012.24 104.413 1012.1 104.84 1012.02 105.32H1018.22C1018.15 104.32 1017.86 103.573 1017.34 103.08C1016.83 102.587 1016.16 102.34 1015.32 102.34Z" fill="#1D1D1D"/>
<path d="M1023.09 110.04V108.46L1029.11 104.4V104.32L1023.09 100.26V98.68L1030.55 103.74V104.98L1023.09 110.04Z" fill="#1D1D1D"/>
<path d="M958.86 135.04L951.4 129.98V128.74L958.86 123.68V125.26L952.84 129.32V129.4L958.86 133.46V135.04Z" fill="#1D1D1D"/>
<path d="M965.912 136.24C965.459 136.24 965.032 136.173 964.632 136.04C964.232 135.92 963.879 135.747 963.572 135.52C963.279 135.28 963.046 134.993 962.872 134.66C962.699 134.313 962.612 133.92 962.612 133.48C962.612 132.933 962.739 132.46 962.992 132.06C963.259 131.647 963.672 131.293 964.232 131C964.806 130.707 965.539 130.467 966.432 130.28C967.326 130.093 968.399 129.947 969.652 129.84C969.639 129.507 969.586 129.193 969.492 128.9C969.399 128.607 969.252 128.353 969.052 128.14C968.852 127.913 968.586 127.733 968.252 127.6C967.932 127.467 967.539 127.4 967.072 127.4C966.432 127.4 965.819 127.527 965.232 127.78C964.646 128.02 964.126 128.28 963.672 128.56L963.032 127.44C963.272 127.28 963.552 127.12 963.872 126.96C964.206 126.787 964.552 126.633 964.912 126.5C965.286 126.367 965.679 126.26 966.092 126.18C966.505 126.087 966.926 126.04 967.352 126.04C968.686 126.04 969.672 126.407 970.312 127.14C970.966 127.86 971.292 128.827 971.292 130.04V136H969.952L969.812 134.68H969.752C969.206 135.107 968.599 135.473 967.932 135.78C967.279 136.087 966.606 136.24 965.912 136.24ZM966.352 134.92C966.912 134.92 967.459 134.8 967.992 134.56C968.539 134.307 969.092 133.947 969.652 133.48V130.92C968.612 131 967.739 131.113 967.032 131.26C966.339 131.407 965.779 131.587 965.352 131.8C964.939 132 964.646 132.233 964.472 132.5C964.299 132.753 964.212 133.04 964.212 133.36C964.212 133.64 964.272 133.88 964.392 134.08C964.512 134.267 964.666 134.427 964.852 134.56C965.052 134.68 965.279 134.773 965.532 134.84C965.799 134.893 966.072 134.92 966.352 134.92Z" fill="#1D1D1D"/>
<path d="M974.844 140.1V126.28H976.204L976.344 127.52H976.404C976.858 127.093 977.378 126.74 977.964 126.46C978.564 126.18 979.164 126.04 979.764 126.04C980.418 126.04 980.991 126.16 981.484 126.4C981.991 126.627 982.411 126.96 982.744 127.4C983.091 127.827 983.351 128.347 983.524 128.96C983.698 129.56 983.784 130.24 983.784 131C983.784 131.827 983.664 132.567 983.424 133.22C983.184 133.86 982.858 134.407 982.444 134.86C982.044 135.313 981.578 135.66 981.044 135.9C980.511 136.127 979.951 136.24 979.364 136.24C978.911 136.24 978.418 136.133 977.884 135.92C977.364 135.693 976.891 135.38 976.464 134.98H976.404L976.484 136.82V140.1H974.844ZM979.084 134.86C979.964 134.86 980.684 134.52 981.244 133.84C981.804 133.16 982.084 132.213 982.084 131C982.084 130.467 982.031 129.98 981.924 129.54C981.818 129.1 981.651 128.727 981.424 128.42C981.211 128.1 980.931 127.853 980.584 127.68C980.238 127.507 979.824 127.42 979.344 127.42C978.918 127.42 978.458 127.54 977.964 127.78C977.484 128.007 976.991 128.373 976.484 128.88V133.72C976.951 134.133 977.418 134.427 977.884 134.6C978.351 134.773 978.751 134.86 979.084 134.86Z" fill="#1D1D1D"/>
<path d="M986.837 140.1V126.28H988.197L988.337 127.52H988.397C988.85 127.093 989.37 126.74 989.957 126.46C990.557 126.18 991.157 126.04 991.757 126.04C992.41 126.04 992.983 126.16 993.477 126.4C993.983 126.627 994.403 126.96 994.737 127.4C995.083 127.827 995.343 128.347 995.517 128.96C995.69 129.56 995.777 130.24 995.777 131C995.777 131.827 995.657 132.567 995.417 133.22C995.177 133.86 994.85 134.407 994.437 134.86C994.037 135.313 993.57 135.66 993.037 135.9C992.503 136.127 991.943 136.24 991.357 136.24C990.903 136.24 990.41 136.133 989.877 135.92C989.357 135.693 988.883 135.38 988.457 134.98H988.397L988.477 136.82V140.1H986.837ZM991.077 134.86C991.957 134.86 992.677 134.52 993.237 133.84C993.797 133.16 994.077 132.213 994.077 131C994.077 130.467 994.023 129.98 993.917 129.54C993.81 129.1 993.643 128.727 993.417 128.42C993.203 128.1 992.923 127.853 992.577 127.68C992.23 127.507 991.817 127.42 991.337 127.42C990.91 127.42 990.45 127.54 989.957 127.78C989.477 128.007 988.983 128.373 988.477 128.88V133.72C988.943 134.133 989.41 134.427 989.877 134.6C990.343 134.773 990.743 134.86 991.077 134.86Z" fill="#1D1D1D"/>
<path d="M953.92 161.24C953.467 161.24 953.04 161.173 952.64 161.04C952.24 160.92 951.887 160.747 951.58 160.52C951.287 160.28 951.053 159.993 950.88 159.66C950.707 159.313 950.62 158.92 950.62 158.48C950.62 157.933 950.747 157.46 951 157.06C951.267 156.647 951.68 156.293 952.24 156C952.813 155.707 953.547 155.467 954.44 155.28C955.333 155.093 956.407 154.947 957.66 154.84C957.647 154.507 957.593 154.193 957.5 153.9C957.407 153.607 957.26 153.353 957.06 153.14C956.86 152.913 956.593 152.733 956.26 152.6C955.94 152.467 955.547 152.4 955.08 152.4C954.44 152.4 953.827 152.527 953.24 152.78C952.653 153.02 952.133 153.28 951.68 153.56L951.04 152.44C951.28 152.28 951.56 152.12 951.88 151.96C952.213 151.787 952.56 151.633 952.92 151.5C953.293 151.367 953.687 151.26 954.1 151.18C954.513 151.087 954.933 151.04 955.36 151.04C956.693 151.04 957.68 151.407 958.32 152.14C958.973 152.86 959.3 153.827 959.3 155.04V161H957.96L957.82 159.68H957.76C957.213 160.107 956.607 160.473 955.94 160.78C955.287 161.087 954.613 161.24 953.92 161.24ZM954.36 159.92C954.92 159.92 955.467 159.8 956 159.56C956.547 159.307 957.1 158.947 957.66 158.48V155.92C956.62 156 955.747 156.113 955.04 156.26C954.347 156.407 953.787 156.587 953.36 156.8C952.947 157 952.653 157.233 952.48 157.5C952.307 157.753 952.22 158.04 952.22 158.36C952.22 158.64 952.28 158.88 952.4 159.08C952.52 159.267 952.673 159.427 952.86 159.56C953.06 159.68 953.287 159.773 953.54 159.84C953.807 159.893 954.08 159.92 954.36 159.92Z" fill="#1D1D1D"/>
<path d="M962.852 165.1V151.28H964.212L964.352 152.52H964.412C964.866 152.093 965.386 151.74 965.972 151.46C966.572 151.18 967.172 151.04 967.772 151.04C968.425 151.04 968.999 151.16 969.492 151.4C969.999 151.627 970.419 151.96 970.752 152.4C971.099 152.827 971.359 153.347 971.532 153.96C971.705 154.56 971.792 155.24 971.792 156C971.792 156.827 971.672 157.567 971.432 158.22C971.192 158.86 970.866 159.407 970.452 159.86C970.052 160.313 969.586 160.66 969.052 160.9C968.519 161.127 967.959 161.24 967.372 161.24C966.919 161.24 966.426 161.133 965.892 160.92C965.372 160.693 964.899 160.38 964.472 159.98H964.412L964.492 161.82V165.1H962.852ZM967.092 159.86C967.972 159.86 968.692 159.52 969.252 158.84C969.812 158.16 970.092 157.213 970.092 156C970.092 155.467 970.039 154.98 969.932 154.54C969.826 154.1 969.659 153.727 969.432 153.42C969.219 153.1 968.939 152.853 968.592 152.68C968.245 152.507 967.832 152.42 967.352 152.42C966.926 152.42 966.466 152.54 965.972 152.78C965.492 153.007 964.999 153.373 964.492 153.88V158.72C964.959 159.133 965.426 159.427 965.892 159.6C966.359 159.773 966.759 159.86 967.092 159.86Z" fill="#1D1D1D"/>
<path d="M974.844 165.1V151.28H976.204L976.344 152.52H976.404C976.858 152.093 977.378 151.74 977.964 151.46C978.564 151.18 979.164 151.04 979.764 151.04C980.418 151.04 980.991 151.16 981.484 151.4C981.991 151.627 982.411 151.96 982.744 152.4C983.091 152.827 983.351 153.347 983.524 153.96C983.698 154.56 983.784 155.24 983.784 156C983.784 156.827 983.664 157.567 983.424 158.22C983.184 158.86 982.858 159.407 982.444 159.86C982.044 160.313 981.578 160.66 981.044 160.9C980.511 161.127 979.951 161.24 979.364 161.24C978.911 161.24 978.418 161.133 977.884 160.92C977.364 160.693 976.891 160.38 976.464 159.98H976.404L976.484 161.82V165.1H974.844ZM979.084 159.86C979.964 159.86 980.684 159.52 981.244 158.84C981.804 158.16 982.084 157.213 982.084 156C982.084 155.467 982.031 154.98 981.924 154.54C981.818 154.1 981.651 153.727 981.424 153.42C981.211 153.1 980.931 152.853 980.584 152.68C980.238 152.507 979.824 152.42 979.344 152.42C978.918 152.42 978.458 152.54 977.964 152.78C977.484 153.007 976.991 153.373 976.484 153.88V158.72C976.951 159.133 977.418 159.427 977.884 159.6C978.351 159.773 978.751 159.86 979.084 159.86Z" fill="#1D1D1D"/>
<path d="M993.117 161.24C992.077 161.24 991.283 160.947 990.737 160.36C990.19 159.773 989.917 158.9 989.917 157.74V148.1H986.457V146.76H991.557V157.86C991.557 158.58 991.73 159.1 992.077 159.42C992.423 159.727 992.89 159.88 993.477 159.88C994.05 159.88 994.657 159.733 995.297 159.44L995.717 160.66C995.263 160.847 994.85 160.987 994.477 161.08C994.103 161.187 993.65 161.24 993.117 161.24Z" fill="#1D1D1D"/>
<path d="M950.86 190.1V176.28H952.22L952.36 177.52H952.42C952.873 177.093 953.393 176.74 953.98 176.46C954.58 176.18 955.18 176.04 955.78 176.04C956.433 176.04 957.007 176.16 957.5 176.4C958.007 176.627 958.427 176.96 958.76 177.4C959.107 177.827 959.367 178.347 959.54 178.96C959.713 179.56 959.8 180.24 959.8 181C959.8 181.827 959.68 182.567 959.44 183.22C959.2 183.86 958.873 184.407 958.46 184.86C958.06 185.313 957.593 185.66 957.06 185.9C956.527 186.127 955.967 186.24 955.38 186.24C954.927 186.24 954.433 186.133 953.9 185.92C953.38 185.693 952.907 185.38 952.48 184.98H952.42L952.5 186.82V190.1H950.86ZM955.1 184.86C955.98 184.86 956.7 184.52 957.26 183.84C957.82 183.16 958.1 182.213 958.1 181C958.1 180.467 958.047 179.98 957.94 179.54C957.833 179.1 957.667 178.727 957.44 178.42C957.227 178.1 956.947 177.853 956.6 177.68C956.253 177.507 955.84 177.42 955.36 177.42C954.933 177.42 954.473 177.54 953.98 177.78C953.5 178.007 953.007 178.373 952.5 178.88V183.72C952.967 184.133 953.433 184.427 953.9 184.6C954.367 184.773 954.767 184.86 955.1 184.86Z" fill="#1D1D1D"/>
<path d="M962.852 190.1V176.28H964.212L964.352 177.52H964.412C964.866 177.093 965.386 176.74 965.972 176.46C966.572 176.18 967.172 176.04 967.772 176.04C968.425 176.04 968.999 176.16 969.492 176.4C969.999 176.627 970.419 176.96 970.752 177.4C971.099 177.827 971.359 178.347 971.532 178.96C971.705 179.56 971.792 180.24 971.792 181C971.792 181.827 971.672 182.567 971.432 183.22C971.192 183.86 970.866 184.407 970.452 184.86C970.052 185.313 969.586 185.66 969.052 185.9C968.519 186.127 967.959 186.24 967.372 186.24C966.919 186.24 966.426 186.133 965.892 185.92C965.372 185.693 964.899 185.38 964.472 184.98H964.412L964.492 186.82V190.1H962.852ZM967.092 184.86C967.972 184.86 968.692 184.52 969.252 183.84C969.812 183.16 970.092 182.213 970.092 181C970.092 180.467 970.039 179.98 969.932 179.54C969.826 179.1 969.659 178.727 969.432 178.42C969.219 178.1 968.939 177.853 968.592 177.68C968.245 177.507 967.832 177.42 967.352 177.42C966.926 177.42 966.466 177.54 965.972 177.78C965.492 178.007 964.999 178.373 964.492 178.88V183.72C964.959 184.133 965.426 184.427 965.892 184.6C966.359 184.773 966.759 184.86 967.092 184.86Z" fill="#1D1D1D"/>
<path d="M981.124 186.24C980.084 186.24 979.291 185.947 978.744 185.36C978.198 184.773 977.924 183.9 977.924 182.74V173.1H974.464V171.76H979.564V182.86C979.564 183.58 979.738 184.1 980.084 184.42C980.431 184.727 980.898 184.88 981.484 184.88C982.058 184.88 982.664 184.733 983.304 184.44L983.724 185.66C983.271 185.847 982.858 185.987 982.484 186.08C982.111 186.187 981.658 186.24 981.124 186.24Z" fill="#1D1D1D"/>
<path d="M991.577 186.24C990.843 186.24 990.157 186.127 989.517 185.9C988.89 185.673 988.337 185.34 987.857 184.9C987.39 184.46 987.017 183.927 986.737 183.3C986.47 182.66 986.337 181.933 986.337 181.12C986.337 180.333 986.47 179.627 986.737 179C987.017 178.373 987.383 177.84 987.837 177.4C988.303 176.96 988.83 176.627 989.417 176.4C990.017 176.16 990.643 176.04 991.297 176.04C991.99 176.04 992.61 176.153 993.157 176.38C993.717 176.593 994.183 176.9 994.557 177.3C994.943 177.7 995.237 178.18 995.437 178.74C995.637 179.3 995.737 179.92 995.737 180.6C995.737 180.787 995.73 180.967 995.717 181.14C995.703 181.313 995.683 181.467 995.657 181.6H987.997C988.103 182.707 988.503 183.54 989.197 184.1C989.903 184.647 990.763 184.92 991.777 184.92C992.363 184.92 992.89 184.84 993.357 184.68C993.837 184.507 994.297 184.28 994.737 184L995.337 185.08C994.857 185.4 994.303 185.673 993.677 185.9C993.063 186.127 992.363 186.24 991.577 186.24ZM991.337 177.34C990.937 177.34 990.55 177.407 990.177 177.54C989.817 177.673 989.49 177.867 989.197 178.12C988.903 178.36 988.657 178.667 988.457 179.04C988.257 179.413 988.117 179.84 988.037 180.32H994.237C994.17 179.32 993.877 178.573 993.357 178.08C992.85 177.587 992.177 177.34 991.337 177.34Z" fill="#1D1D1D"/>
<path d="M950.86 215.1V201.28H952.22L952.36 202.52H952.42C952.873 202.093 953.393 201.74 953.98 201.46C954.58 201.18 955.18 201.04 955.78 201.04C956.433 201.04 957.007 201.16 957.5 201.4C958.007 201.627 958.427 201.96 958.76 202.4C959.107 202.827 959.367 203.347 959.54 203.96C959.713 204.56 959.8 205.24 959.8 206C959.8 206.827 959.68 207.567 959.44 208.22C959.2 208.86 958.873 209.407 958.46 209.86C958.06 210.313 957.593 210.66 957.06 210.9C956.527 211.127 955.967 211.24 955.38 211.24C954.927 211.24 954.433 211.133 953.9 210.92C953.38 210.693 952.907 210.38 952.48 209.98H952.42L952.5 211.82V215.1H950.86ZM955.1 209.86C955.98 209.86 956.7 209.52 957.26 208.84C957.82 208.16 958.1 207.213 958.1 206C958.1 205.467 958.047 204.98 957.94 204.54C957.833 204.1 957.667 203.727 957.44 203.42C957.227 203.1 956.947 202.853 956.6 202.68C956.253 202.507 955.84 202.42 955.36 202.42C954.933 202.42 954.473 202.54 953.98 202.78C953.5 203.007 953.007 203.373 952.5 203.88V208.72C952.967 209.133 953.433 209.427 953.9 209.6C954.367 209.773 954.767 209.86 955.1 209.86Z" fill="#1D1D1D"/>
<path d="M969.132 211.24C968.092 211.24 967.299 210.947 966.752 210.36C966.206 209.773 965.932 208.9 965.932 207.74V198.1H962.472V196.76H967.572V207.86C967.572 208.58 967.745 209.1 968.092 209.42C968.439 209.727 968.906 209.88 969.492 209.88C970.066 209.88 970.672 209.733 971.312 209.44L971.732 210.66C971.279 210.847 970.866 210.987 970.492 211.08C970.119 211.187 969.666 211.24 969.132 211.24Z" fill="#1D1D1D"/>
<path d="M979.584 211.24C978.851 211.24 978.164 211.127 977.524 210.9C976.898 210.673 976.344 210.34 975.864 209.9C975.398 209.46 975.024 208.927 974.744 208.3C974.478 207.66 974.344 206.933 974.344 206.12C974.344 205.333 974.478 204.627 974.744 204C975.024 203.373 975.391 202.84 975.844 202.4C976.311 201.96 976.838 201.627 977.424 201.4C978.024 201.16 978.651 201.04 979.304 201.04C979.998 201.04 980.618 201.153 981.164 201.38C981.724 201.593 982.191 201.9 982.564 202.3C982.951 202.7 983.244 203.18 983.444 203.74C983.644 204.3 983.744 204.92 983.744 205.6C983.744 205.787 983.738 205.967 983.724 206.14C983.711 206.313 983.691 206.467 983.664 206.6H976.004C976.111 207.707 976.511 208.54 977.204 209.1C977.911 209.647 978.771 209.92 979.784 209.92C980.371 209.92 980.898 209.84 981.364 209.68C981.844 209.507 982.304 209.28 982.744 209L983.344 210.08C982.864 210.4 982.311 210.673 981.684 210.9C981.071 211.127 980.371 211.24 979.584 211.24ZM979.344 202.34C978.944 202.34 978.558 202.407 978.184 202.54C977.824 202.673 977.498 202.867 977.204 203.12C976.911 203.36 976.664 203.667 976.464 204.04C976.264 204.413 976.124 204.84 976.044 205.32H982.244C982.178 204.32 981.884 203.573 981.364 203.08C980.858 202.587 980.184 202.34 979.344 202.34Z" fill="#1D1D1D"/>
<path d="M987.117 210.04V208.46L993.137 204.4V204.32L987.117 200.26V198.68L994.577 203.74V204.98L987.117 210.04Z" fill="#1D1D1D"/>
<path d="M1244.48 13H1246.32L1242.18 7.96L1246.18 4.12H1244.2L1240.14 8.06V7.15256e-07H1238.64V13H1240.14V9.82L1241.1 8.9L1244.48 13Z" fill="#1D1D1D"/>
<path d="M1253.26 10.34C1253.02 11.34 1252.2 11.9 1251.1 11.9C1249.6 11.9 1248.54 10.74 1248.52 8.84H1254.8V8.3C1254.8 5.72 1253.5 3.94 1251.06 3.94C1248.64 3.94 1247.02 5.92 1247.02 8.58C1247.02 11.32 1248.68 13.18 1251.1 13.18C1253.1 13.18 1254.36 12.02 1254.68 10.34H1253.26ZM1251.08 5.22C1252.56 5.22 1253.26 6.38 1253.28 7.7H1248.56C1248.78 6.14 1249.74 5.22 1251.08 5.22Z" fill="#1D1D1D"/>
<path d="M1259.27 16.4L1264.05 4.12H1262.49L1259.91 11.12L1257.29 4.12H1255.67L1259.13 13.06L1257.79 16.4H1259.27Z" fill="#1D1D1D"/>
<path d="M1273.9 0.700001H1272.96L1269.32 2.56V4.16L1272.36 2.6V13H1273.9V0.700001Z" fill="#1D1D1D"/>
<path d="M1284.6 3.12V6.44H1281.28V7.68H1284.6V11H1285.84V7.68H1289.16V6.44H1285.84V3.12H1284.6Z" fill="#1D1D1D"/>
<path d="M1302.22 13H1304.06L1299.92 7.96L1303.92 4.12H1301.94L1297.88 8.06V7.15256e-07H1296.38V13H1297.88V9.82L1298.84 8.9L1302.22 13Z" fill="#1D1D1D"/>
<path d="M1311 10.34C1310.76 11.34 1309.94 11.9 1308.84 11.9C1307.34 11.9 1306.28 10.74 1306.26 8.84H1312.54V8.3C1312.54 5.72 1311.24 3.94 1308.8 3.94C1306.38 3.94 1304.76 5.92 1304.76 8.58C1304.76 11.32 1306.42 13.18 1308.84 13.18C1310.84 13.18 1312.1 12.02 1312.42 10.34H1311ZM1308.82 5.22C1310.3 5.22 1311 6.38 1311.02 7.7H1306.3C1306.52 6.14 1307.48 5.22 1308.82 5.22Z" fill="#1D1D1D"/>
<path d="M1317 16.4L1321.78 4.12H1320.22L1317.64 11.12L1315.02 4.12H1313.4L1316.86 13.06L1315.52 16.4H1317Z" fill="#1D1D1D"/>
<path d="M1333.38 4.02C1333.38 5.18 1332.38 6.2 1331.1 7.6L1327.14 11.96V13H1335.16V11.6H1329.3L1332.42 8.18C1333.66 6.78 1334.9 5.56 1334.9 4C1334.9 1.9 1333.5 0.540001 1331.16 0.540001C1328.9 0.540001 1327.38 2.12 1327.14 4.4H1328.76C1328.88 2.98 1329.68 1.94 1331.16 1.94C1332.52 1.94 1333.38 2.76 1333.38 4.02Z" fill="#1D1D1D"/>
<path d="M477.86 110.04L470.4 104.98V103.74L477.86 98.68V100.26L471.84 104.32V104.4L477.86 108.46V110.04Z" fill="#1D1D1D"/>
<path d="M484.912 111.24C484.459 111.24 484.032 111.173 483.632 111.04C483.232 110.92 482.879 110.747 482.572 110.52C482.279 110.28 482.046 109.993 481.872 109.66C481.699 109.313 481.612 108.92 481.612 108.48C481.612 107.933 481.739 107.46 481.992 107.06C482.259 106.647 482.672 106.293 483.232 106C483.806 105.707 484.539 105.467 485.432 105.28C486.326 105.093 487.399 104.947 488.652 104.84C488.639 104.507 488.586 104.193 488.492 103.9C488.399 103.607 488.252 103.353 488.052 103.14C487.852 102.913 487.586 102.733 487.252 102.6C486.932 102.467 486.539 102.4 486.072 102.4C485.432 102.4 484.819 102.527 484.232 102.78C483.646 103.02 483.126 103.28 482.672 103.56L482.032 102.44C482.272 102.28 482.552 102.12 482.872 101.96C483.206 101.787 483.552 101.633 483.912 101.5C484.286 101.367 484.679 101.26 485.092 101.18C485.506 101.087 485.926 101.04 486.352 101.04C487.686 101.04 488.672 101.407 489.312 102.14C489.966 102.86 490.292 103.827 490.292 105.04V111H488.952L488.812 109.68H488.752C488.206 110.107 487.599 110.473 486.932 110.78C486.279 111.087 485.606 111.24 484.912 111.24ZM485.352 109.92C485.912 109.92 486.459 109.8 486.992 109.56C487.539 109.307 488.092 108.947 488.652 108.48V105.92C487.612 106 486.739 106.113 486.032 106.26C485.339 106.407 484.779 106.587 484.352 106.8C483.939 107 483.646 107.233 483.472 107.5C483.299 107.753 483.212 108.04 483.212 108.36C483.212 108.64 483.272 108.88 483.392 109.08C483.512 109.267 483.666 109.427 483.852 109.56C484.052 109.68 484.279 109.773 484.532 109.84C484.799 109.893 485.072 109.92 485.352 109.92Z" fill="#1D1D1D"/>
<path d="M493.844 115.1V101.28H495.204L495.344 102.52H495.404C495.858 102.093 496.378 101.74 496.964 101.46C497.564 101.18 498.164 101.04 498.764 101.04C499.418 101.04 499.991 101.16 500.484 101.4C500.991 101.627 501.411 101.96 501.744 102.4C502.091 102.827 502.351 103.347 502.524 103.96C502.698 104.56 502.784 105.24 502.784 106C502.784 106.827 502.664 107.567 502.424 108.22C502.184 108.86 501.858 109.407 501.444 109.86C501.044 110.313 500.578 110.66 500.044 110.9C499.511 111.127 498.951 111.24 498.364 111.24C497.911 111.24 497.418 111.133 496.884 110.92C496.364 110.693 495.891 110.38 495.464 109.98H495.404L495.484 111.82V115.1H493.844ZM498.084 109.86C498.964 109.86 499.684 109.52 500.244 108.84C500.804 108.16 501.084 107.213 501.084 106C501.084 105.467 501.031 104.98 500.924 104.54C500.818 104.1 500.651 103.727 500.424 103.42C500.211 103.1 499.931 102.853 499.584 102.68C499.238 102.507 498.824 102.42 498.344 102.42C497.918 102.42 497.458 102.54 496.964 102.78C496.484 103.007 495.991 103.373 495.484 103.88V108.72C495.951 109.133 496.418 109.427 496.884 109.6C497.351 109.773 497.751 109.86 498.084 109.86Z" fill="#1D1D1D"/>
<path d="M505.837 115.1V101.28H507.197L507.337 102.52H507.397C507.85 102.093 508.37 101.74 508.957 101.46C509.557 101.18 510.157 101.04 510.757 101.04C511.41 101.04 511.983 101.16 512.477 101.4C512.983 101.627 513.403 101.96 513.737 102.4C514.083 102.827 514.343 103.347 514.517 103.96C514.69 104.56 514.777 105.24 514.777 106C514.777 106.827 514.657 107.567 514.417 108.22C514.177 108.86 513.85 109.407 513.437 109.86C513.037 110.313 512.57 110.66 512.037 110.9C511.503 111.127 510.943 111.24 510.357 111.24C509.903 111.24 509.41 111.133 508.877 110.92C508.357 110.693 507.883 110.38 507.457 109.98H507.397L507.477 111.82V115.1H505.837ZM510.077 109.86C510.957 109.86 511.677 109.52 512.237 108.84C512.797 108.16 513.077 107.213 513.077 106C513.077 105.467 513.023 104.98 512.917 104.54C512.81 104.1 512.643 103.727 512.417 103.42C512.203 103.1 511.923 102.853 511.577 102.68C511.23 102.507 510.817 102.42 510.337 102.42C509.91 102.42 509.45 102.54 508.957 102.78C508.477 103.007 507.983 103.373 507.477 103.88V108.72C507.943 109.133 508.41 109.427 508.877 109.6C509.343 109.773 509.743 109.86 510.077 109.86Z" fill="#1D1D1D"/>
<path d="M524.109 111.24C523.069 111.24 522.275 110.947 521.729 110.36C521.182 109.773 520.909 108.9 520.909 107.74V98.1H517.449V96.76H522.549V107.86C522.549 108.58 522.722 109.1 523.069 109.42C523.415 109.727 523.882 109.88 524.469 109.88C525.042 109.88 525.649 109.733 526.289 109.44L526.709 110.66C526.255 110.847 525.842 110.987 525.469 111.08C525.095 111.187 524.642 111.24 524.109 111.24Z" fill="#1D1D1D"/>
<path d="M534.561 111.24C533.828 111.24 533.141 111.127 532.501 110.9C531.874 110.673 531.321 110.34 530.841 109.9C530.374 109.46 530.001 108.927 529.721 108.3C529.454 107.66 529.321 106.933 529.321 106.12C529.321 105.333 529.454 104.627 529.721 104C530.001 103.373 530.368 102.84 530.821 102.4C531.288 101.96 531.814 101.627 532.401 101.4C533.001 101.16 533.628 101.04 534.281 101.04C534.974 101.04 535.594 101.153 536.141 101.38C536.701 101.593 537.168 101.9 537.541 102.3C537.928 102.7 538.221 103.18 538.421 103.74C538.621 104.3 538.721 104.92 538.721 105.6C538.721 105.787 538.714 105.967 538.701 106.14C538.688 106.313 538.668 106.467 538.641 106.6H530.981C531.088 107.707 531.488 108.54 532.181 109.1C532.888 109.647 533.748 109.92 534.761 109.92C535.348 109.92 535.874 109.84 536.341 109.68C536.821 109.507 537.281 109.28 537.721 109L538.321 110.08C537.841 110.4 537.288 110.673 536.661 110.9C536.048 111.127 535.348 111.24 534.561 111.24ZM534.321 102.34C533.921 102.34 533.534 102.407 533.161 102.54C532.801 102.673 532.474 102.867 532.181 103.12C531.888 103.36 531.641 103.667 531.441 104.04C531.241 104.413 531.101 104.84 531.021 105.32H537.221C537.154 104.32 536.861 103.573 536.341 103.08C535.834 102.587 535.161 102.34 534.321 102.34Z" fill="#1D1D1D"/>
<path d="M542.093 110.04V108.46L548.113 104.4V104.32L542.093 100.26V98.68L549.553 103.74V104.98L542.093 110.04Z" fill="#1D1D1D"/>
<path d="M477.86 135.04L470.4 129.98V128.74L477.86 123.68V125.26L471.84 129.32V129.4L477.86 133.46V135.04Z" fill="#1D1D1D"/>
<path d="M484.912 136.24C484.459 136.24 484.032 136.173 483.632 136.04C483.232 135.92 482.879 135.747 482.572 135.52C482.279 135.28 482.046 134.993 481.872 134.66C481.699 134.313 481.612 133.92 481.612 133.48C481.612 132.933 481.739 132.46 481.992 132.06C482.259 131.647 482.672 131.293 483.232 131C483.806 130.707 484.539 130.467 485.432 130.28C486.326 130.093 487.399 129.947 488.652 129.84C488.639 129.507 488.586 129.193 488.492 128.9C488.399 128.607 488.252 128.353 488.052 128.14C487.852 127.913 487.586 127.733 487.252 127.6C486.932 127.467 486.539 127.4 486.072 127.4C485.432 127.4 484.819 127.527 484.232 127.78C483.646 128.02 483.126 128.28 482.672 128.56L482.032 127.44C482.272 127.28 482.552 127.12 482.872 126.96C483.206 126.787 483.552 126.633 483.912 126.5C484.286 126.367 484.679 126.26 485.092 126.18C485.506 126.087 485.926 126.04 486.352 126.04C487.686 126.04 488.672 126.407 489.312 127.14C489.966 127.86 490.292 128.827 490.292 130.04V136H488.952L488.812 134.68H488.752C488.206 135.107 487.599 135.473 486.932 135.78C486.279 136.087 485.606 136.24 484.912 136.24ZM485.352 134.92C485.912 134.92 486.459 134.8 486.992 134.56C487.539 134.307 488.092 133.947 488.652 133.48V130.92C487.612 131 486.739 131.113 486.032 131.26C485.339 131.407 484.779 131.587 484.352 131.8C483.939 132 483.646 132.233 483.472 132.5C483.299 132.753 483.212 133.04 483.212 133.36C483.212 133.64 483.272 133.88 483.392 134.08C483.512 134.267 483.666 134.427 483.852 134.56C484.052 134.68 484.279 134.773 484.532 134.84C484.799 134.893 485.072 134.92 485.352 134.92Z" fill="#1D1D1D"/>
<path d="M493.844 140.1V126.28H495.204L495.344 127.52H495.404C495.858 127.093 496.378 126.74 496.964 126.46C497.564 126.18 498.164 126.04 498.764 126.04C499.418 126.04 499.991 126.16 500.484 126.4C500.991 126.627 501.411 126.96 501.744 127.4C502.091 127.827 502.351 128.347 502.524 128.96C502.698 129.56 502.784 130.24 502.784 131C502.784 131.827 502.664 132.567 502.424 133.22C502.184 133.86 501.858 134.407 501.444 134.86C501.044 135.313 500.578 135.66 500.044 135.9C499.511 136.127 498.951 136.24 498.364 136.24C497.911 136.24 497.418 136.133 496.884 135.92C496.364 135.693 495.891 135.38 495.464 134.98H495.404L495.484 136.82V140.1H493.844ZM498.084 134.86C498.964 134.86 499.684 134.52 500.244 133.84C500.804 133.16 501.084 132.213 501.084 131C501.084 130.467 501.031 129.98 500.924 129.54C500.818 129.1 500.651 128.727 500.424 128.42C500.211 128.1 499.931 127.853 499.584 127.68C499.238 127.507 498.824 127.42 498.344 127.42C497.918 127.42 497.458 127.54 496.964 127.78C496.484 128.007 495.991 128.373 495.484 128.88V133.72C495.951 134.133 496.418 134.427 496.884 134.6C497.351 134.773 497.751 134.86 498.084 134.86Z" fill="#1D1D1D"/>
<path d="M505.837 140.1V126.28H507.197L507.337 127.52H507.397C507.85 127.093 508.37 126.74 508.957 126.46C509.557 126.18 510.157 126.04 510.757 126.04C511.41 126.04 511.983 126.16 512.477 126.4C512.983 126.627 513.403 126.96 513.737 127.4C514.083 127.827 514.343 128.347 514.517 128.96C514.69 129.56 514.777 130.24 514.777 131C514.777 131.827 514.657 132.567 514.417 133.22C514.177 133.86 513.85 134.407 513.437 134.86C513.037 135.313 512.57 135.66 512.037 135.9C511.503 136.127 510.943 136.24 510.357 136.24C509.903 136.24 509.41 136.133 508.877 135.92C508.357 135.693 507.883 135.38 507.457 134.98H507.397L507.477 136.82V140.1H505.837ZM510.077 134.86C510.957 134.86 511.677 134.52 512.237 133.84C512.797 133.16 513.077 132.213 513.077 131C513.077 130.467 513.023 129.98 512.917 129.54C512.81 129.1 512.643 128.727 512.417 128.42C512.203 128.1 511.923 127.853 511.577 127.68C511.23 127.507 510.817 127.42 510.337 127.42C509.91 127.42 509.45 127.54 508.957 127.78C508.477 128.007 507.983 128.373 507.477 128.88V133.72C507.943 134.133 508.41 134.427 508.877 134.6C509.343 134.773 509.743 134.86 510.077 134.86Z" fill="#1D1D1D"/>
<path d="M472.92 161.24C472.467 161.24 472.04 161.173 471.64 161.04C471.24 160.92 470.887 160.747 470.58 160.52C470.287 160.28 470.053 159.993 469.88 159.66C469.707 159.313 469.62 158.92 469.62 158.48C469.62 157.933 469.747 157.46 470 157.06C470.267 156.647 470.68 156.293 471.24 156C471.813 155.707 472.547 155.467 473.44 155.28C474.333 155.093 475.407 154.947 476.66 154.84C476.647 154.507 476.593 154.193 476.5 153.9C476.407 153.607 476.26 153.353 476.06 153.14C475.86 152.913 475.593 152.733 475.26 152.6C474.94 152.467 474.547 152.4 474.08 152.4C473.44 152.4 472.827 152.527 472.24 152.78C471.653 153.02 471.133 153.28 470.68 153.56L470.04 152.44C470.28 152.28 470.56 152.12 470.88 151.96C471.213 151.787 471.56 151.633 471.92 151.5C472.293 151.367 472.687 151.26 473.1 151.18C473.513 151.087 473.933 151.04 474.36 151.04C475.693 151.04 476.68 151.407 477.32 152.14C477.973 152.86 478.3 153.827 478.3 155.04V161H476.96L476.82 159.68H476.76C476.213 160.107 475.607 160.473 474.94 160.78C474.287 161.087 473.613 161.24 472.92 161.24ZM473.36 159.92C473.92 159.92 474.467 159.8 475 159.56C475.547 159.307 476.1 158.947 476.66 158.48V155.92C475.62 156 474.747 156.113 474.04 156.26C473.347 156.407 472.787 156.587 472.36 156.8C471.947 157 471.653 157.233 471.48 157.5C471.307 157.753 471.22 158.04 471.22 158.36C471.22 158.64 471.28 158.88 471.4 159.08C471.52 159.267 471.673 159.427 471.86 159.56C472.06 159.68 472.287 159.773 472.54 159.84C472.807 159.893 473.08 159.92 473.36 159.92Z" fill="#1D1D1D"/>
<path d="M481.852 165.1V151.28H483.212L483.352 152.52H483.412C483.866 152.093 484.386 151.74 484.972 151.46C485.572 151.18 486.172 151.04 486.772 151.04C487.426 151.04 487.999 151.16 488.492 151.4C488.999 151.627 489.419 151.96 489.752 152.4C490.099 152.827 490.359 153.347 490.532 153.96C490.706 154.56 490.792 155.24 490.792 156C490.792 156.827 490.672 157.567 490.432 158.22C490.192 158.86 489.866 159.407 489.452 159.86C489.052 160.313 488.586 160.66 488.052 160.9C487.519 161.127 486.959 161.24 486.372 161.24C485.919 161.24 485.426 161.133 484.892 160.92C484.372 160.693 483.899 160.38 483.472 159.98H483.412L483.492 161.82V165.1H481.852ZM486.092 159.86C486.972 159.86 487.692 159.52 488.252 158.84C488.812 158.16 489.092 157.213 489.092 156C489.092 155.467 489.039 154.98 488.932 154.54C488.826 154.1 488.659 153.727 488.432 153.42C488.219 153.1 487.939 152.853 487.592 152.68C487.246 152.507 486.832 152.42 486.352 152.42C485.926 152.42 485.466 152.54 484.972 152.78C484.492 153.007 483.999 153.373 483.492 153.88V158.72C483.959 159.133 484.426 159.427 484.892 159.6C485.359 159.773 485.759 159.86 486.092 159.86Z" fill="#1D1D1D"/>
<path d="M493.844 165.1V151.28H495.204L495.344 152.52H495.404C495.858 152.093 496.378 151.74 496.964 151.46C497.564 151.18 498.164 151.04 498.764 151.04C499.418 151.04 499.991 151.16 500.484 151.4C500.991 151.627 501.411 151.96 501.744 152.4C502.091 152.827 502.351 153.347 502.524 153.96C502.698 154.56 502.784 155.24 502.784 156C502.784 156.827 502.664 157.567 502.424 158.22C502.184 158.86 501.858 159.407 501.444 159.86C501.044 160.313 500.578 160.66 500.044 160.9C499.511 161.127 498.951 161.24 498.364 161.24C497.911 161.24 497.418 161.133 496.884 160.92C496.364 160.693 495.891 160.38 495.464 159.98H495.404L495.484 161.82V165.1H493.844ZM498.084 159.86C498.964 159.86 499.684 159.52 500.244 158.84C500.804 158.16 501.084 157.213 501.084 156C501.084 155.467 501.031 154.98 500.924 154.54C500.818 154.1 500.651 153.727 500.424 153.42C500.211 153.1 499.931 152.853 499.584 152.68C499.238 152.507 498.824 152.42 498.344 152.42C497.918 152.42 497.458 152.54 496.964 152.78C496.484 153.007 495.991 153.373 495.484 153.88V158.72C495.951 159.133 496.418 159.427 496.884 159.6C497.351 159.773 497.751 159.86 498.084 159.86Z" fill="#1D1D1D"/>
<path d="M512.117 161.24C511.077 161.24 510.283 160.947 509.737 160.36C509.19 159.773 508.917 158.9 508.917 157.74V148.1H505.457V146.76H510.557V157.86C510.557 158.58 510.73 159.1 511.077 159.42C511.423 159.727 511.89 159.88 512.477 159.88C513.05 159.88 513.657 159.733 514.297 159.44L514.717 160.66C514.263 160.847 513.85 160.987 513.477 161.08C513.103 161.187 512.65 161.24 512.117 161.24Z" fill="#1D1D1D"/>
<path d="M469.86 190.1V176.28H471.22L471.36 177.52H471.42C471.873 177.093 472.393 176.74 472.98 176.46C473.58 176.18 474.18 176.04 474.78 176.04C475.433 176.04 476.007 176.16 476.5 176.4C477.007 176.627 477.427 176.96 477.76 177.4C478.107 177.827 478.367 178.347 478.54 178.96C478.713 179.56 478.8 180.24 478.8 181C478.8 181.827 478.68 182.567 478.44 183.22C478.2 183.86 477.873 184.407 477.46 184.86C477.06 185.313 476.593 185.66 476.06 185.9C475.527 186.127 474.967 186.24 474.38 186.24C473.927 186.24 473.433 186.133 472.9 185.92C472.38 185.693 471.907 185.38 471.48 184.98H471.42L471.5 186.82V190.1H469.86ZM474.1 184.86C474.98 184.86 475.7 184.52 476.26 183.84C476.82 183.16 477.1 182.213 477.1 181C477.1 180.467 477.047 179.98 476.94 179.54C476.833 179.1 476.667 178.727 476.44 178.42C476.227 178.1 475.947 177.853 475.6 177.68C475.253 177.507 474.84 177.42 474.36 177.42C473.933 177.42 473.473 177.54 472.98 177.78C472.5 178.007 472.007 178.373 471.5 178.88V183.72C471.967 184.133 472.433 184.427 472.9 184.6C473.367 184.773 473.767 184.86 474.1 184.86Z" fill="#1D1D1D"/>
<path d="M481.852 190.1V176.28H483.212L483.352 177.52H483.412C483.866 177.093 484.386 176.74 484.972 176.46C485.572 176.18 486.172 176.04 486.772 176.04C487.426 176.04 487.999 176.16 488.492 176.4C488.999 176.627 489.419 176.96 489.752 177.4C490.099 177.827 490.359 178.347 490.532 178.96C490.706 179.56 490.792 180.24 490.792 181C490.792 181.827 490.672 182.567 490.432 183.22C490.192 183.86 489.866 184.407 489.452 184.86C489.052 185.313 488.586 185.66 488.052 185.9C487.519 186.127 486.959 186.24 486.372 186.24C485.919 186.24 485.426 186.133 484.892 185.92C484.372 185.693 483.899 185.38 483.472 184.98H483.412L483.492 186.82V190.1H481.852ZM486.092 184.86C486.972 184.86 487.692 184.52 488.252 183.84C488.812 183.16 489.092 182.213 489.092 181C489.092 180.467 489.039 179.98 488.932 179.54C488.826 179.1 488.659 178.727 488.432 178.42C488.219 178.1 487.939 177.853 487.592 177.68C487.246 177.507 486.832 177.42 486.352 177.42C485.926 177.42 485.466 177.54 484.972 177.78C484.492 178.007 483.999 178.373 483.492 178.88V183.72C483.959 184.133 484.426 184.427 484.892 184.6C485.359 184.773 485.759 184.86 486.092 184.86Z" fill="#1D1D1D"/>
<path d="M500.124 186.24C499.084 186.24 498.291 185.947 497.744 185.36C497.198 184.773 496.924 183.9 496.924 182.74V173.1H493.464V171.76H498.564V182.86C498.564 183.58 498.738 184.1 499.084 184.42C499.431 184.727 499.898 184.88 500.484 184.88C501.058 184.88 501.664 184.733 502.304 184.44L502.724 185.66C502.271 185.847 501.858 185.987 501.484 186.08C501.111 186.187 500.658 186.24 500.124 186.24Z" fill="#1D1D1D"/>
<path d="M510.577 186.24C509.843 186.24 509.157 186.127 508.517 185.9C507.89 185.673 507.337 185.34 506.857 184.9C506.39 184.46 506.017 183.927 505.737 183.3C505.47 182.66 505.337 181.933 505.337 181.12C505.337 180.333 505.47 179.627 505.737 179C506.017 178.373 506.383 177.84 506.837 177.4C507.303 176.96 507.83 176.627 508.417 176.4C509.017 176.16 509.643 176.04 510.297 176.04C510.99 176.04 511.61 176.153 512.157 176.38C512.717 176.593 513.183 176.9 513.557 177.3C513.943 177.7 514.237 178.18 514.437 178.74C514.637 179.3 514.737 179.92 514.737 180.6C514.737 180.787 514.73 180.967 514.717 181.14C514.703 181.313 514.683 181.467 514.657 181.6H506.997C507.103 182.707 507.503 183.54 508.197 184.1C508.903 184.647 509.763 184.92 510.777 184.92C511.363 184.92 511.89 184.84 512.357 184.68C512.837 184.507 513.297 184.28 513.737 184L514.337 185.08C513.857 185.4 513.303 185.673 512.677 185.9C512.063 186.127 511.363 186.24 510.577 186.24ZM510.337 177.34C509.937 177.34 509.55 177.407 509.177 177.54C508.817 177.673 508.49 177.867 508.197 178.12C507.903 178.36 507.657 178.667 507.457 179.04C507.257 179.413 507.117 179.84 507.037 180.32H513.237C513.17 179.32 512.877 178.573 512.357 178.08C511.85 177.587 511.177 177.34 510.337 177.34Z" fill="#1D1D1D"/>
<path d="M469.86 215.1V201.28H471.22L471.36 202.52H471.42C471.873 202.093 472.393 201.74 472.98 201.46C473.58 201.18 474.18 201.04 474.78 201.04C475.433 201.04 476.007 201.16 476.5 201.4C477.007 201.627 477.427 201.96 477.76 202.4C478.107 202.827 478.367 203.347 478.54 203.96C478.713 204.56 478.8 205.24 478.8 206C478.8 206.827 478.68 207.567 478.44 208.22C478.2 208.86 477.873 209.407 477.46 209.86C477.06 210.313 476.593 210.66 476.06 210.9C475.527 211.127 474.967 211.24 474.38 211.24C473.927 211.24 473.433 211.133 472.9 210.92C472.38 210.693 471.907 210.38 471.48 209.98H471.42L471.5 211.82V215.1H469.86ZM474.1 209.86C474.98 209.86 475.7 209.52 476.26 208.84C476.82 208.16 477.1 207.213 477.1 206C477.1 205.467 477.047 204.98 476.94 204.54C476.833 204.1 476.667 203.727 476.44 203.42C476.227 203.1 475.947 202.853 475.6 202.68C475.253 202.507 474.84 202.42 474.36 202.42C473.933 202.42 473.473 202.54 472.98 202.78C472.5 203.007 472.007 203.373 471.5 203.88V208.72C471.967 209.133 472.433 209.427 472.9 209.6C473.367 209.773 473.767 209.86 474.1 209.86Z" fill="#1D1D1D"/>
<path d="M488.132 211.24C487.092 211.24 486.299 210.947 485.752 210.36C485.206 209.773 484.932 208.9 484.932 207.74V198.1H481.472V196.76H486.572V207.86C486.572 208.58 486.746 209.1 487.092 209.42C487.439 209.727 487.906 209.88 488.492 209.88C489.066 209.88 489.672 209.733 490.312 209.44L490.732 210.66C490.279 210.847 489.866 210.987 489.492 211.08C489.119 211.187 488.666 211.24 488.132 211.24Z" fill="#1D1D1D"/>
<path d="M498.584 211.24C497.851 211.24 497.164 211.127 496.524 210.9C495.898 210.673 495.344 210.34 494.864 209.9C494.398 209.46 494.024 208.927 493.744 208.3C493.478 207.66 493.344 206.933 493.344 206.12C493.344 205.333 493.478 204.627 493.744 204C494.024 203.373 494.391 202.84 494.844 202.4C495.311 201.96 495.838 201.627 496.424 201.4C497.024 201.16 497.651 201.04 498.304 201.04C498.998 201.04 499.618 201.153 500.164 201.38C500.724 201.593 501.191 201.9 501.564 202.3C501.951 202.7 502.244 203.18 502.444 203.74C502.644 204.3 502.744 204.92 502.744 205.6C502.744 205.787 502.738 205.967 502.724 206.14C502.711 206.313 502.691 206.467 502.664 206.6H495.004C495.111 207.707 495.511 208.54 496.204 209.1C496.911 209.647 497.771 209.92 498.784 209.92C499.371 209.92 499.898 209.84 500.364 209.68C500.844 209.507 501.304 209.28 501.744 209L502.344 210.08C501.864 210.4 501.311 210.673 500.684 210.9C500.071 211.127 499.371 211.24 498.584 211.24ZM498.344 202.34C497.944 202.34 497.558 202.407 497.184 202.54C496.824 202.673 496.498 202.867 496.204 203.12C495.911 203.36 495.664 203.667 495.464 204.04C495.264 204.413 495.124 204.84 495.044 205.32H501.244C501.178 204.32 500.884 203.573 500.364 203.08C499.858 202.587 499.184 202.34 498.344 202.34Z" fill="#1D1D1D"/>
<path d="M506.117 210.04V208.46L512.137 204.4V204.32L506.117 200.26V198.68L513.577 203.74V204.98L506.117 210.04Z" fill="#1D1D1D"/>
<path d="M792.348 13H794.188L790.048 7.96L794.048 4.12H792.068L788.008 8.06V0H786.508V13H788.008V9.82L788.968 8.9L792.348 13Z" fill="#1D1D1D"/>
<path d="M801.131 10.34C800.891 11.34 800.071 11.9 798.971 11.9C797.471 11.9 796.411 10.74 796.391 8.84H802.671V8.3C802.671 5.72 801.371 3.94 798.931 3.94C796.511 3.94 794.891 5.92 794.891 8.58C794.891 11.32 796.551 13.18 798.971 13.18C800.971 13.18 802.231 12.02 802.551 10.34H801.131ZM798.951 5.22C800.431 5.22 801.131 6.38 801.151 7.7H796.431C796.651 6.14 797.611 5.22 798.951 5.22Z" fill="#1D1D1D"/>
<path d="M807.136 16.4L811.916 4.12H810.356L807.776 11.12L805.156 4.12H803.536L806.996 13.06L805.656 16.4H807.136Z" fill="#1D1D1D"/>
<path d="M823.511 4.02C823.511 5.18 822.511 6.2 821.231 7.6L817.271 11.96V13H825.291V11.6H819.431L822.551 8.18C823.791 6.78 825.031 5.56 825.031 4C825.031 1.9 823.631 0.54 821.291 0.54C819.031 0.54 817.511 2.12 817.271 4.4H818.891C819.011 2.98 819.811 1.94 821.291 1.94C822.651 1.94 823.511 2.76 823.511 4.02Z" fill="#1D1D1D"/>
<path d="M8.86 110.04L1.4 104.98V103.74L8.86 98.68V100.26L2.84 104.32V104.4L8.86 108.46V110.04Z" fill="#1D1D1D"/>
<path d="M15.9122 111.24C15.4588 111.24 15.0322 111.173 14.6322 111.04C14.2322 110.92 13.8788 110.747 13.5722 110.52C13.2788 110.28 13.0455 109.993 12.8722 109.66C12.6988 109.313 12.6122 108.92 12.6122 108.48C12.6122 107.933 12.7388 107.46 12.9922 107.06C13.2588 106.647 13.6722 106.293 14.2322 106C14.8055 105.707 15.5388 105.467 16.4322 105.28C17.3255 105.093 18.3989 104.947 19.6522 104.84C19.6388 104.507 19.5855 104.193 19.4922 103.9C19.3989 103.607 19.2522 103.353 19.0522 103.14C18.8522 102.913 18.5855 102.733 18.2522 102.6C17.9322 102.467 17.5389 102.4 17.0722 102.4C16.4322 102.4 15.8188 102.527 15.2322 102.78C14.6455 103.02 14.1255 103.28 13.6722 103.56L13.0322 102.44C13.2722 102.28 13.5522 102.12 13.8722 101.96C14.2055 101.787 14.5522 101.633 14.9122 101.5C15.2855 101.367 15.6788 101.26 16.0922 101.18C16.5055 101.087 16.9255 101.04 17.3522 101.04C18.6855 101.04 19.6722 101.407 20.3122 102.14C20.9655 102.86 21.2922 103.827 21.2922 105.04V111H19.9522L19.8122 109.68H19.7522C19.2055 110.107 18.5988 110.473 17.9322 110.78C17.2788 111.087 16.6055 111.24 15.9122 111.24ZM16.3522 109.92C16.9122 109.92 17.4589 109.8 17.9922 109.56C18.5389 109.307 19.0922 108.947 19.6522 108.48V105.92C18.6122 106 17.7388 106.113 17.0322 106.26C16.3388 106.407 15.7788 106.587 15.3522 106.8C14.9388 107 14.6455 107.233 14.4722 107.5C14.2988 107.753 14.2122 108.04 14.2122 108.36C14.2122 108.64 14.2722 108.88 14.3922 109.08C14.5122 109.267 14.6655 109.427 14.8522 109.56C15.0522 109.68 15.2788 109.773 15.5322 109.84C15.7988 109.893 16.0722 109.92 16.3522 109.92Z" fill="#1D1D1D"/>
<path d="M24.8444 115.1V101.28H26.2044L26.3444 102.52H26.4044C26.8577 102.093 27.3777 101.74 27.9644 101.46C28.5644 101.18 29.1644 101.04 29.7644 101.04C30.4177 101.04 30.991 101.16 31.4844 101.4C31.991 101.627 32.411 101.96 32.7444 102.4C33.091 102.827 33.351 103.347 33.5244 103.96C33.6977 104.56 33.7844 105.24 33.7844 106C33.7844 106.827 33.6644 107.567 33.4244 108.22C33.1844 108.86 32.8577 109.407 32.4444 109.86C32.0444 110.313 31.5777 110.66 31.0444 110.9C30.511 111.127 29.951 111.24 29.3644 111.24C28.911 111.24 28.4177 111.133 27.8844 110.92C27.3644 110.693 26.891 110.38 26.4644 109.98H26.4044L26.4844 111.82V115.1H24.8444ZM29.0844 109.86C29.9644 109.86 30.6844 109.52 31.2444 108.84C31.8044 108.16 32.0844 107.213 32.0844 106C32.0844 105.467 32.031 104.98 31.9244 104.54C31.8177 104.1 31.651 103.727 31.4244 103.42C31.211 103.1 30.931 102.853 30.5844 102.68C30.2377 102.507 29.8244 102.42 29.3444 102.42C28.9177 102.42 28.4577 102.54 27.9644 102.78C27.4844 103.007 26.991 103.373 26.4844 103.88V108.72C26.951 109.133 27.4177 109.427 27.8844 109.6C28.351 109.773 28.751 109.86 29.0844 109.86Z" fill="#1D1D1D"/>
<path d="M36.8366 115.1V101.28H38.1966L38.3366 102.52H38.3966C38.8499 102.093 39.3699 101.74 39.9566 101.46C40.5566 101.18 41.1566 101.04 41.7566 101.04C42.4099 101.04 42.9832 101.16 43.4766 101.4C43.9832 101.627 44.4032 101.96 44.7366 102.4C45.0832 102.827 45.3432 103.347 45.5166 103.96C45.6899 104.56 45.7766 105.24 45.7766 106C45.7766 106.827 45.6566 107.567 45.4166 108.22C45.1766 108.86 44.8499 109.407 44.4366 109.86C44.0366 110.313 43.5699 110.66 43.0366 110.9C42.5032 111.127 41.9432 111.24 41.3566 111.24C40.9032 111.24 40.4099 111.133 39.8766 110.92C39.3566 110.693 38.8832 110.38 38.4566 109.98H38.3966L38.4766 111.82V115.1H36.8366ZM41.0766 109.86C41.9566 109.86 42.6766 109.52 43.2366 108.84C43.7966 108.16 44.0766 107.213 44.0766 106C44.0766 105.467 44.0232 104.98 43.9166 104.54C43.8099 104.1 43.6432 103.727 43.4166 103.42C43.2032 103.1 42.9232 102.853 42.5766 102.68C42.2299 102.507 41.8166 102.42 41.3366 102.42C40.9099 102.42 40.4499 102.54 39.9566 102.78C39.4766 103.007 38.9832 103.373 38.4766 103.88V108.72C38.9432 109.133 39.4099 109.427 39.8766 109.6C40.3432 109.773 40.7432 109.86 41.0766 109.86Z" fill="#1D1D1D"/>
<path d="M55.1087 111.24C54.0687 111.24 53.2754 110.947 52.7287 110.36C52.1821 109.773 51.9087 108.9 51.9087 107.74V98.1H48.4487V96.76H53.5487V107.86C53.5487 108.58 53.7221 109.1 54.0687 109.42C54.4154 109.727 54.8821 109.88 55.4687 109.88C56.0421 109.88 56.6487 109.733 57.2887 109.44L57.7087 110.66C57.2554 110.847 56.8421 110.987 56.4687 111.08C56.0954 111.187 55.6421 111.24 55.1087 111.24Z" fill="#1D1D1D"/>
<path d="M65.5609 111.24C64.8276 111.24 64.1409 111.127 63.5009 110.9C62.8743 110.673 62.3209 110.34 61.8409 109.9C61.3743 109.46 61.0009 108.927 60.7209 108.3C60.4543 107.66 60.3209 106.933 60.3209 106.12C60.3209 105.333 60.4543 104.627 60.7209 104C61.0009 103.373 61.3676 102.84 61.8209 102.4C62.2876 101.96 62.8143 101.627 63.4009 101.4C64.0009 101.16 64.6276 101.04 65.2809 101.04C65.9743 101.04 66.5943 101.153 67.1409 101.38C67.7009 101.593 68.1676 101.9 68.5409 102.3C68.9276 102.7 69.2209 103.18 69.4209 103.74C69.6209 104.3 69.7209 104.92 69.7209 105.6C69.7209 105.787 69.7143 105.967 69.7009 106.14C69.6876 106.313 69.6676 106.467 69.6409 106.6H61.9809C62.0876 107.707 62.4876 108.54 63.1809 109.1C63.8876 109.647 64.7476 109.92 65.7609 109.92C66.3476 109.92 66.8743 109.84 67.3409 109.68C67.8209 109.507 68.2809 109.28 68.7209 109L69.3209 110.08C68.8409 110.4 68.2876 110.673 67.6609 110.9C67.0476 111.127 66.3476 111.24 65.5609 111.24ZM65.3209 102.34C64.9209 102.34 64.5343 102.407 64.1609 102.54C63.8009 102.673 63.4743 102.867 63.1809 103.12C62.8876 103.36 62.6409 103.667 62.4409 104.04C62.2409 104.413 62.1009 104.84 62.0209 105.32H68.2209C68.1543 104.32 67.8609 103.573 67.3409 103.08C66.8343 102.587 66.1609 102.34 65.3209 102.34Z" fill="#1D1D1D"/>
<path d="M73.0931 110.04V108.46L79.1131 104.4V104.32L73.0931 100.26V98.68L80.5531 103.74V104.98L73.0931 110.04Z" fill="#1D1D1D"/>
<path d="M8.86 135.04L1.4 129.98V128.74L8.86 123.68V125.26L2.84 129.32V129.4L8.86 133.46V135.04Z" fill="#1D1D1D"/>
<path d="M15.9122 136.24C15.4588 136.24 15.0322 136.173 14.6322 136.04C14.2322 135.92 13.8788 135.747 13.5722 135.52C13.2788 135.28 13.0455 134.993 12.8722 134.66C12.6988 134.313 12.6122 133.92 12.6122 133.48C12.6122 132.933 12.7388 132.46 12.9922 132.06C13.2588 131.647 13.6722 131.293 14.2322 131C14.8055 130.707 15.5388 130.467 16.4322 130.28C17.3255 130.093 18.3989 129.947 19.6522 129.84C19.6388 129.507 19.5855 129.193 19.4922 128.9C19.3989 128.607 19.2522 128.353 19.0522 128.14C18.8522 127.913 18.5855 127.733 18.2522 127.6C17.9322 127.467 17.5389 127.4 17.0722 127.4C16.4322 127.4 15.8188 127.527 15.2322 127.78C14.6455 128.02 14.1255 128.28 13.6722 128.56L13.0322 127.44C13.2722 127.28 13.5522 127.12 13.8722 126.96C14.2055 126.787 14.5522 126.633 14.9122 126.5C15.2855 126.367 15.6788 126.26 16.0922 126.18C16.5055 126.087 16.9255 126.04 17.3522 126.04C18.6855 126.04 19.6722 126.407 20.3122 127.14C20.9655 127.86 21.2922 128.827 21.2922 130.04V136H19.9522L19.8122 134.68H19.7522C19.2055 135.107 18.5988 135.473 17.9322 135.78C17.2788 136.087 16.6055 136.24 15.9122 136.24ZM16.3522 134.92C16.9122 134.92 17.4589 134.8 17.9922 134.56C18.5389 134.307 19.0922 133.947 19.6522 133.48V130.92C18.6122 131 17.7388 131.113 17.0322 131.26C16.3388 131.407 15.7788 131.587 15.3522 131.8C14.9388 132 14.6455 132.233 14.4722 132.5C14.2988 132.753 14.2122 133.04 14.2122 133.36C14.2122 133.64 14.2722 133.88 14.3922 134.08C14.5122 134.267 14.6655 134.427 14.8522 134.56C15.0522 134.68 15.2788 134.773 15.5322 134.84C15.7988 134.893 16.0722 134.92 16.3522 134.92Z" fill="#1D1D1D"/>
<path d="M24.8444 140.1V126.28H26.2044L26.3444 127.52H26.4044C26.8577 127.093 27.3777 126.74 27.9644 126.46C28.5644 126.18 29.1644 126.04 29.7644 126.04C30.4177 126.04 30.991 126.16 31.4844 126.4C31.991 126.627 32.411 126.96 32.7444 127.4C33.091 127.827 33.351 128.347 33.5244 128.96C33.6977 129.56 33.7844 130.24 33.7844 131C33.7844 131.827 33.6644 132.567 33.4244 133.22C33.1844 133.86 32.8577 134.407 32.4444 134.86C32.0444 135.313 31.5777 135.66 31.0444 135.9C30.511 136.127 29.951 136.24 29.3644 136.24C28.911 136.24 28.4177 136.133 27.8844 135.92C27.3644 135.693 26.891 135.38 26.4644 134.98H26.4044L26.4844 136.82V140.1H24.8444ZM29.0844 134.86C29.9644 134.86 30.6844 134.52 31.2444 133.84C31.8044 133.16 32.0844 132.213 32.0844 131C32.0844 130.467 32.031 129.98 31.9244 129.54C31.8177 129.1 31.651 128.727 31.4244 128.42C31.211 128.1 30.931 127.853 30.5844 127.68C30.2377 127.507 29.8244 127.42 29.3444 127.42C28.9177 127.42 28.4577 127.54 27.9644 127.78C27.4844 128.007 26.991 128.373 26.4844 128.88V133.72C26.951 134.133 27.4177 134.427 27.8844 134.6C28.351 134.773 28.751 134.86 29.0844 134.86Z" fill="#1D1D1D"/>
<path d="M36.8366 140.1V126.28H38.1966L38.3366 127.52H38.3966C38.8499 127.093 39.3699 126.74 39.9566 126.46C40.5566 126.18 41.1566 126.04 41.7566 126.04C42.4099 126.04 42.9832 126.16 43.4766 126.4C43.9832 126.627 44.4032 126.96 44.7366 127.4C45.0832 127.827 45.3432 128.347 45.5166 128.96C45.6899 129.56 45.7766 130.24 45.7766 131C45.7766 131.827 45.6566 132.567 45.4166 133.22C45.1766 133.86 44.8499 134.407 44.4366 134.86C44.0366 135.313 43.5699 135.66 43.0366 135.9C42.5032 136.127 41.9432 136.24 41.3566 136.24C40.9032 136.24 40.4099 136.133 39.8766 135.92C39.3566 135.693 38.8832 135.38 38.4566 134.98H38.3966L38.4766 136.82V140.1H36.8366ZM41.0766 134.86C41.9566 134.86 42.6766 134.52 43.2366 133.84C43.7966 133.16 44.0766 132.213 44.0766 131C44.0766 130.467 44.0232 129.98 43.9166 129.54C43.8099 129.1 43.6432 128.727 43.4166 128.42C43.2032 128.1 42.9232 127.853 42.5766 127.68C42.2299 127.507 41.8166 127.42 41.3366 127.42C40.9099 127.42 40.4499 127.54 39.9566 127.78C39.4766 128.007 38.9832 128.373 38.4766 128.88V133.72C38.9432 134.133 39.4099 134.427 39.8766 134.6C40.3432 134.773 40.7432 134.86 41.0766 134.86Z" fill="#1D1D1D"/>
<path d="M3.92 161.24C3.46666 161.24 3.04 161.173 2.64 161.04C2.24 160.92 1.88666 160.747 1.58 160.52C1.28666 160.28 1.05333 159.993 0.879995 159.66C0.706662 159.313 0.619995 158.92 0.619995 158.48C0.619995 157.933 0.746662 157.46 0.999995 157.06C1.26666 156.647 1.68 156.293 2.24 156C2.81333 155.707 3.54666 155.467 4.44 155.28C5.33333 155.093 6.40666 154.947 7.66 154.84C7.64666 154.507 7.59333 154.193 7.5 153.9C7.40666 153.607 7.26 153.353 7.06 153.14C6.86 152.913 6.59333 152.733 6.26 152.6C5.94 152.467 5.54666 152.4 5.08 152.4C4.44 152.4 3.82666 152.527 3.24 152.78C2.65333 153.02 2.13333 153.28 1.68 153.56L1.04 152.44C1.28 152.28 1.56 152.12 1.88 151.96C2.21333 151.787 2.56 151.633 2.92 151.5C3.29333 151.367 3.68666 151.26 4.1 151.18C4.51333 151.087 4.93333 151.04 5.36 151.04C6.69333 151.04 7.68 151.407 8.32 152.14C8.97333 152.86 9.3 153.827 9.3 155.04V161H7.96L7.82 159.68H7.76C7.21333 160.107 6.60666 160.473 5.94 160.78C5.28666 161.087 4.61333 161.24 3.92 161.24ZM4.36 159.92C4.92 159.92 5.46666 159.8 6 159.56C6.54666 159.307 7.1 158.947 7.66 158.48V155.92C6.62 156 5.74666 156.113 5.04 156.26C4.34666 156.407 3.78666 156.587 3.36 156.8C2.94666 157 2.65333 157.233 2.48 157.5C2.30666 157.753 2.22 158.04 2.22 158.36C2.22 158.64 2.28 158.88 2.4 159.08C2.52 159.267 2.67333 159.427 2.86 159.56C3.06 159.68 3.28666 159.773 3.54 159.84C3.80666 159.893 4.08 159.92 4.36 159.92Z" fill="#1D1D1D"/>
<path d="M12.8522 165.1V151.28H14.2122L14.3522 152.52H14.4122C14.8655 152.093 15.3855 151.74 15.9722 151.46C16.5722 151.18 17.1722 151.04 17.7722 151.04C18.4255 151.04 18.9989 151.16 19.4922 151.4C19.9989 151.627 20.4189 151.96 20.7522 152.4C21.0989 152.827 21.3588 153.347 21.5322 153.96C21.7055 154.56 21.7922 155.24 21.7922 156C21.7922 156.827 21.6722 157.567 21.4322 158.22C21.1922 158.86 20.8655 159.407 20.4522 159.86C20.0522 160.313 19.5855 160.66 19.0522 160.9C18.5188 161.127 17.9588 161.24 17.3722 161.24C16.9188 161.24 16.4255 161.133 15.8922 160.92C15.3722 160.693 14.8988 160.38 14.4722 159.98H14.4122L14.4922 161.82V165.1H12.8522ZM17.0922 159.86C17.9722 159.86 18.6922 159.52 19.2522 158.84C19.8122 158.16 20.0922 157.213 20.0922 156C20.0922 155.467 20.0388 154.98 19.9322 154.54C19.8255 154.1 19.6588 153.727 19.4322 153.42C19.2188 153.1 18.9388 152.853 18.5922 152.68C18.2455 152.507 17.8322 152.42 17.3522 152.42C16.9255 152.42 16.4655 152.54 15.9722 152.78C15.4922 153.007 14.9988 153.373 14.4922 153.88V158.72C14.9588 159.133 15.4255 159.427 15.8922 159.6C16.3588 159.773 16.7588 159.86 17.0922 159.86Z" fill="#1D1D1D"/>
<path d="M24.8444 165.1V151.28H26.2044L26.3444 152.52H26.4044C26.8577 152.093 27.3777 151.74 27.9644 151.46C28.5644 151.18 29.1644 151.04 29.7644 151.04C30.4177 151.04 30.991 151.16 31.4844 151.4C31.991 151.627 32.411 151.96 32.7444 152.4C33.091 152.827 33.351 153.347 33.5244 153.96C33.6977 154.56 33.7844 155.24 33.7844 156C33.7844 156.827 33.6644 157.567 33.4244 158.22C33.1844 158.86 32.8577 159.407 32.4444 159.86C32.0444 160.313 31.5777 160.66 31.0444 160.9C30.511 161.127 29.951 161.24 29.3644 161.24C28.911 161.24 28.4177 161.133 27.8844 160.92C27.3644 160.693 26.891 160.38 26.4644 159.98H26.4044L26.4844 161.82V165.1H24.8444ZM29.0844 159.86C29.9644 159.86 30.6844 159.52 31.2444 158.84C31.8044 158.16 32.0844 157.213 32.0844 156C32.0844 155.467 32.031 154.98 31.9244 154.54C31.8177 154.1 31.651 153.727 31.4244 153.42C31.211 153.1 30.931 152.853 30.5844 152.68C30.2377 152.507 29.8244 152.42 29.3444 152.42C28.9177 152.42 28.4577 152.54 27.9644 152.78C27.4844 153.007 26.991 153.373 26.4844 153.88V158.72C26.951 159.133 27.4177 159.427 27.8844 159.6C28.351 159.773 28.751 159.86 29.0844 159.86Z" fill="#1D1D1D"/>
<path d="M43.1166 161.24C42.0766 161.24 41.2832 160.947 40.7366 160.36C40.1899 159.773 39.9166 158.9 39.9166 157.74V148.1H36.4566V146.76H41.5566V157.86C41.5566 158.58 41.7299 159.1 42.0766 159.42C42.4232 159.727 42.8899 159.88 43.4766 159.88C44.0499 159.88 44.6566 159.733 45.2966 159.44L45.7166 160.66C45.2632 160.847 44.8499 160.987 44.4766 161.08C44.1032 161.187 43.6499 161.24 43.1166 161.24Z" fill="#1D1D1D"/>
<path d="M0.859995 190.1V176.28H2.22L2.36 177.52H2.42C2.87333 177.093 3.39333 176.74 3.98 176.46C4.58 176.18 5.18 176.04 5.78 176.04C6.43333 176.04 7.00666 176.16 7.5 176.4C8.00666 176.627 8.42666 176.96 8.76 177.4C9.10666 177.827 9.36666 178.347 9.54 178.96C9.71333 179.56 9.8 180.24 9.8 181C9.8 181.827 9.68 182.567 9.44 183.22C9.2 183.86 8.87333 184.407 8.46 184.86C8.06 185.313 7.59333 185.66 7.06 185.9C6.52666 186.127 5.96666 186.24 5.38 186.24C4.92666 186.24 4.43333 186.133 3.9 185.92C3.38 185.693 2.90666 185.38 2.48 184.98H2.42L2.5 186.82V190.1H0.859995ZM5.1 184.86C5.98 184.86 6.7 184.52 7.26 183.84C7.82 183.16 8.1 182.213 8.1 181C8.1 180.467 8.04666 179.98 7.94 179.54C7.83333 179.1 7.66666 178.727 7.44 178.42C7.22666 178.1 6.94666 177.853 6.6 177.68C6.25333 177.507 5.84 177.42 5.36 177.42C4.93333 177.42 4.47333 177.54 3.98 177.78C3.5 178.007 3.00666 178.373 2.5 178.88V183.72C2.96666 184.133 3.43333 184.427 3.9 184.6C4.36666 184.773 4.76666 184.86 5.1 184.86Z" fill="#1D1D1D"/>
<path d="M12.8522 190.1V176.28H14.2122L14.3522 177.52H14.4122C14.8655 177.093 15.3855 176.74 15.9722 176.46C16.5722 176.18 17.1722 176.04 17.7722 176.04C18.4255 176.04 18.9989 176.16 19.4922 176.4C19.9989 176.627 20.4189 176.96 20.7522 177.4C21.0989 177.827 21.3588 178.347 21.5322 178.96C21.7055 179.56 21.7922 180.24 21.7922 181C21.7922 181.827 21.6722 182.567 21.4322 183.22C21.1922 183.86 20.8655 184.407 20.4522 184.86C20.0522 185.313 19.5855 185.66 19.0522 185.9C18.5188 186.127 17.9588 186.24 17.3722 186.24C16.9188 186.24 16.4255 186.133 15.8922 185.92C15.3722 185.693 14.8988 185.38 14.4722 184.98H14.4122L14.4922 186.82V190.1H12.8522ZM17.0922 184.86C17.9722 184.86 18.6922 184.52 19.2522 183.84C19.8122 183.16 20.0922 182.213 20.0922 181C20.0922 180.467 20.0388 179.98 19.9322 179.54C19.8255 179.1 19.6588 178.727 19.4322 178.42C19.2188 178.1 18.9388 177.853 18.5922 177.68C18.2455 177.507 17.8322 177.42 17.3522 177.42C16.9255 177.42 16.4655 177.54 15.9722 177.78C15.4922 178.007 14.9988 178.373 14.4922 178.88V183.72C14.9588 184.133 15.4255 184.427 15.8922 184.6C16.3588 184.773 16.7588 184.86 17.0922 184.86Z" fill="#1D1D1D"/>
<path d="M31.1244 186.24C30.0844 186.24 29.291 185.947 28.7444 185.36C28.1977 184.773 27.9244 183.9 27.9244 182.74V173.1H24.4644V171.76H29.5644V182.86C29.5644 183.58 29.7377 184.1 30.0844 184.42C30.431 184.727 30.8977 184.88 31.4844 184.88C32.0577 184.88 32.6644 184.733 33.3044 184.44L33.7244 185.66C33.271 185.847 32.8577 185.987 32.4844 186.08C32.111 186.187 31.6577 186.24 31.1244 186.24Z" fill="#1D1D1D"/>
<path d="M41.5766 186.24C40.8432 186.24 40.1566 186.127 39.5166 185.9C38.8899 185.673 38.3366 185.34 37.8566 184.9C37.3899 184.46 37.0166 183.927 36.7366 183.3C36.4699 182.66 36.3366 181.933 36.3366 181.12C36.3366 180.333 36.4699 179.627 36.7366 179C37.0166 178.373 37.3832 177.84 37.8366 177.4C38.3032 176.96 38.8299 176.627 39.4166 176.4C40.0166 176.16 40.6432 176.04 41.2966 176.04C41.9899 176.04 42.6099 176.153 43.1566 176.38C43.7166 176.593 44.1832 176.9 44.5566 177.3C44.9432 177.7 45.2366 178.18 45.4366 178.74C45.6366 179.3 45.7366 179.92 45.7366 180.6C45.7366 180.787 45.7299 180.967 45.7166 181.14C45.7032 181.313 45.6832 181.467 45.6566 181.6H37.9966C38.1032 182.707 38.5032 183.54 39.1966 184.1C39.9032 184.647 40.7632 184.92 41.7766 184.92C42.3632 184.92 42.8899 184.84 43.3566 184.68C43.8366 184.507 44.2966 184.28 44.7366 184L45.3366 185.08C44.8566 185.4 44.3032 185.673 43.6766 185.9C43.0632 186.127 42.3632 186.24 41.5766 186.24ZM41.3366 177.34C40.9366 177.34 40.5499 177.407 40.1766 177.54C39.8166 177.673 39.4899 177.867 39.1966 178.12C38.9032 178.36 38.6566 178.667 38.4566 179.04C38.2566 179.413 38.1166 179.84 38.0366 180.32H44.2366C44.1699 179.32 43.8766 178.573 43.3566 178.08C42.8499 177.587 42.1766 177.34 41.3366 177.34Z" fill="#1D1D1D"/>
<path d="M0.859995 215.1V201.28H2.22L2.36 202.52H2.42C2.87333 202.093 3.39333 201.74 3.98 201.46C4.58 201.18 5.18 201.04 5.78 201.04C6.43333 201.04 7.00666 201.16 7.5 201.4C8.00666 201.627 8.42666 201.96 8.76 202.4C9.10666 202.827 9.36666 203.347 9.54 203.96C9.71333 204.56 9.8 205.24 9.8 206C9.8 206.827 9.68 207.567 9.44 208.22C9.2 208.86 8.87333 209.407 8.46 209.86C8.06 210.313 7.59333 210.66 7.06 210.9C6.52666 211.127 5.96666 211.24 5.38 211.24C4.92666 211.24 4.43333 211.133 3.9 210.92C3.38 210.693 2.90666 210.38 2.48 209.98H2.42L2.5 211.82V215.1H0.859995ZM5.1 209.86C5.98 209.86 6.7 209.52 7.26 208.84C7.82 208.16 8.1 207.213 8.1 206C8.1 205.467 8.04666 204.98 7.94 204.54C7.83333 204.1 7.66666 203.727 7.44 203.42C7.22666 203.1 6.94666 202.853 6.6 202.68C6.25333 202.507 5.84 202.42 5.36 202.42C4.93333 202.42 4.47333 202.54 3.98 202.78C3.5 203.007 3.00666 203.373 2.5 203.88V208.72C2.96666 209.133 3.43333 209.427 3.9 209.6C4.36666 209.773 4.76666 209.86 5.1 209.86Z" fill="#1D1D1D"/>
<path d="M19.1322 211.24C18.0922 211.24 17.2988 210.947 16.7522 210.36C16.2055 209.773 15.9322 208.9 15.9322 207.74V198.1H12.4722V196.76H17.5722V207.86C17.5722 208.58 17.7455 209.1 18.0922 209.42C18.4388 209.727 18.9055 209.88 19.4922 209.88C20.0655 209.88 20.6722 209.733 21.3122 209.44L21.7322 210.66C21.2789 210.847 20.8655 210.987 20.4922 211.08C20.1189 211.187 19.6655 211.24 19.1322 211.24Z" fill="#1D1D1D"/>
<path d="M29.5844 211.24C28.851 211.24 28.1644 211.127 27.5244 210.9C26.8977 210.673 26.3444 210.34 25.8644 209.9C25.3977 209.46 25.0244 208.927 24.7444 208.3C24.4777 207.66 24.3444 206.933 24.3444 206.12C24.3444 205.333 24.4777 204.627 24.7444 204C25.0244 203.373 25.391 202.84 25.8444 202.4C26.311 201.96 26.8377 201.627 27.4244 201.4C28.0244 201.16 28.651 201.04 29.3044 201.04C29.9977 201.04 30.6177 201.153 31.1644 201.38C31.7244 201.593 32.191 201.9 32.5644 202.3C32.951 202.7 33.2444 203.18 33.4444 203.74C33.6444 204.3 33.7444 204.92 33.7444 205.6C33.7444 205.787 33.7377 205.967 33.7244 206.14C33.711 206.313 33.691 206.467 33.6644 206.6H26.0044C26.111 207.707 26.511 208.54 27.2044 209.1C27.911 209.647 28.771 209.92 29.7844 209.92C30.371 209.92 30.8977 209.84 31.3644 209.68C31.8444 209.507 32.3044 209.28 32.7444 209L33.3444 210.08C32.8644 210.4 32.311 210.673 31.6844 210.9C31.071 211.127 30.371 211.24 29.5844 211.24ZM29.3444 202.34C28.9444 202.34 28.5577 202.407 28.1844 202.54C27.8244 202.673 27.4977 202.867 27.2044 203.12C26.911 203.36 26.6644 203.667 26.4644 204.04C26.2644 204.413 26.1244 204.84 26.0444 205.32H32.2444C32.1777 204.32 31.8844 203.573 31.3644 203.08C30.8577 202.587 30.1844 202.34 29.3444 202.34Z" fill="#1D1D1D"/>
<path d="M37.1166 210.04V208.46L43.1366 204.4V204.32L37.1166 200.26V198.68L44.5766 203.74V204.98L37.1166 210.04Z" fill="#1D1D1D"/>
<path d="M326.627 13H328.467L324.327 7.96L328.327 4.12H326.347L322.287 8.06V0H320.787V13H322.287V9.82L323.247 8.9L326.627 13Z" fill="#1D1D1D"/>
<path d="M335.411 10.34C335.171 11.34 334.351 11.9 333.251 11.9C331.751 11.9 330.691 10.74 330.671 8.84H336.951V8.3C336.951 5.72 335.651 3.94 333.211 3.94C330.791 3.94 329.171 5.92 329.171 8.58C329.171 11.32 330.831 13.18 333.251 13.18C335.251 13.18 336.511 12.02 336.831 10.34H335.411ZM333.231 5.22C334.711 5.22 335.411 6.38 335.431 7.7H330.711C330.931 6.14 331.891 5.22 333.231 5.22Z" fill="#1D1D1D"/>
<path d="M341.415 16.4L346.195 4.12H344.635L342.055 11.12L339.435 4.12H337.815L341.275 13.06L339.935 16.4H341.415Z" fill="#1D1D1D"/>
<path d="M356.051 0.700001H355.111L351.471 2.56V4.16L354.511 2.6V13H356.051V0.700001Z" fill="#1D1D1D"/>
<rect x="244.5" y="205.5" width="188" height="14" fill="#F8F1DA" stroke="#F5CE5F"/>
<rect x="244.5" y="304.5" width="188" height="14" fill="#F8F1DA" stroke="#F5CE5F"/>
<rect x="244.5" y="276.5" width="188" height="14" fill="#F8F1DA" stroke="#F5CE5F"/>
<rect x="244.5" y="125.5" width="188" height="14" fill="#F8F1DA" stroke="#F5CE5F"/>
<rect x="244.5" y="25.5" width="188" height="14" fill="#F8F1DA" stroke="#F5CE5F"/>
<rect x="245" y="18" width="187" height="307" stroke="black" stroke-width="2"/>
<circle cx="141.5" cy="136.5" r="6.5" fill="white"/>
<circle cx="141.5" cy="78.5" r="6.5" fill="white"/>
<circle cx="141.5" cy="202.5" r="6.5" fill="white"/>
<ellipse cx="141" cy="121" rx="7" ry="4" fill="white"/>
<path d="M94 203H95V202H94V203ZM94 312.5H93V313.5H94V312.5ZM238.5 312.5L228.5 306.726V318.274L238.5 312.5ZM59 204H94V202H59V204ZM93 203V312.5H95V203H93ZM94 313.5H229.5V311.5H94V313.5Z" fill="#AFAFAF"/>
<path d="M118 180H119V179H118V180ZM118 283H117V284H118V283ZM236 283L226 277.226V288.774L236 283ZM59 181H118V179H59V181ZM117 180V283H119V180H117ZM118 284H227V282H118V284Z" fill="#AFAFAF"/>
<path d="M187.804 107H188.804V106H187.804V107ZM187.804 213H186.804V214H187.804V213ZM238 213L228 207.227V218.774L238 213ZM85 108H187.804V106H85V108ZM186.804 107V213H188.804V107H186.804ZM187.804 214H229V212H187.804V214Z" fill="#AFAFAF"/>
<circle cx="189.5" cy="132.5" r="6.5" fill="white"/>
<circle cx="117.5" cy="106.5" r="6.5" fill="white"/>
<path d="M235.5 132.5L225.5 126.726V138.274L235.5 132.5ZM56.5 133.5H102.5V131.5H56.5V133.5ZM102.5 133.5H126V131.5H102.5V133.5ZM126 133.5H226.5V131.5H126V133.5Z" fill="#AFAFAF"/>
<circle cx="117.5" cy="132.5" r="6.5" fill="white"/>
<path d="M118 156H119V157H118V156ZM118 32H117V31H118V32ZM236 32L226 37.7735V26.2265L236 32ZM59 155H118V157H59V155ZM117 156V32H119V156H117ZM118 31H227V33H118V31Z" fill="#AFAFAF"/>
</svg>
