<svg width="757" height="328" viewBox="0 0 757 328" fill="none" xmlns="http://www.w3.org/2000/svg">
<rect x="560.661" y="207.5" width="195.839" height="14" fill="#F8F1DA" stroke="#F5CE5F"/>
<rect x="560.661" y="306.5" width="195.839" height="14" fill="#F8F1DA" stroke="#F5CE5F"/>
<rect x="560.661" y="278.5" width="195.839" height="14" fill="#F8F1DA" stroke="#F5CE5F"/>
<rect x="560.661" y="127.5" width="195.839" height="14" fill="#F8F1DA" stroke="#F5CE5F"/>
<rect x="560.661" y="27.5" width="195.839" height="14" fill="#F8F1DA" stroke="#F5CE5F"/>
<rect x="561.161" y="20" width="194.839" height="307" stroke="black" stroke-width="2"/>
<ellipse cx="453.41" cy="138.5" rx="6.76959" ry="6.5" fill="white"/>
<ellipse cx="453.41" cy="80.5" rx="6.76959" ry="6.5" fill="white"/>
<ellipse cx="453.41" cy="204.5" rx="6.76959" ry="6.5" fill="white"/>
<ellipse cx="452.889" cy="123" rx="7.29032" ry="4" fill="white"/>
<path d="M403.94 205H404.94V204H403.94V205ZM403.94 314.5H402.94V315.5H403.94V314.5ZM554.433 314.5L544.433 308.726V320.274L554.433 314.5ZM367.488 206H403.94V204H367.488V206ZM402.94 205V314.5H404.94V205H402.94ZM403.94 315.5H545.433V313.5H403.94V315.5Z" fill="#AFAFAF"/>
<path d="M428.935 182H429.935V181H428.935V182ZM428.935 285H427.935V286H428.935V285ZM551.829 285L541.829 279.226V290.774L551.829 285ZM367.488 183H428.935V181H367.488V183ZM427.935 182V285H429.935V182H427.935ZM428.935 286H542.829V284H428.935V286Z" fill="#AFAFAF"/>
<path d="M257.733 108H256.733V107H257.733V108ZM257.733 214H258.733V215H257.733V214ZM200 214L210 208.226V219.773L200 214ZM298 109H257.733V107H298V109ZM258.733 108V214H256.733V108H258.733ZM257.733 215H209V213H257.733V215Z" fill="#AFAFAF"/>
<ellipse cx="503.401" cy="134.5" rx="6.76959" ry="6.5" fill="white"/>
<ellipse cx="428.415" cy="108.5" rx="6.76959" ry="6.5" fill="white"/>
<path d="M551.309 134.5L541.309 128.726V140.274L551.309 134.5ZM364.885 135.5H412.793V133.5H364.885V135.5ZM412.793 135.5H437.267V133.5H412.793V135.5ZM437.267 135.5H542.309V133.5H437.267V135.5Z" fill="#AFAFAF"/>
<ellipse cx="428.415" cy="134.5" rx="6.76959" ry="6.5" fill="white"/>
<path d="M428.935 158H429.935V159H428.935V158ZM428.935 34H427.935V33H428.935V34ZM551.829 34L541.829 39.7735V28.2265L551.829 34ZM367.488 157H428.935V159H367.488V157ZM427.935 158V34H429.935V158H427.935ZM428.935 33H542.829V35H428.935V33Z" fill="#AFAFAF"/>
<rect x="0.661255" y="207.5" width="195.839" height="14" fill="#F8F1DA" stroke="#F5CE5F"/>
<rect x="1.16125" y="20" width="194.839" height="307" stroke="black" stroke-width="2"/>
<path d="M314.86 112.04L307.4 106.98V105.74L314.86 100.68V102.26L308.84 106.32V106.4L314.86 110.46V112.04Z" fill="#1D1D1D"/>
<path d="M321.912 113.24C321.459 113.24 321.032 113.173 320.632 113.04C320.232 112.92 319.879 112.747 319.572 112.52C319.279 112.28 319.046 111.993 318.872 111.66C318.699 111.313 318.612 110.92 318.612 110.48C318.612 109.933 318.739 109.46 318.992 109.06C319.259 108.647 319.672 108.293 320.232 108C320.806 107.707 321.539 107.467 322.432 107.28C323.326 107.093 324.399 106.947 325.652 106.84C325.639 106.507 325.586 106.193 325.492 105.9C325.399 105.607 325.252 105.353 325.052 105.14C324.852 104.913 324.586 104.733 324.252 104.6C323.932 104.467 323.539 104.4 323.072 104.4C322.432 104.4 321.819 104.527 321.232 104.78C320.646 105.02 320.125 105.28 319.672 105.56L319.032 104.44C319.272 104.28 319.552 104.12 319.872 103.96C320.206 103.787 320.552 103.633 320.912 103.5C321.286 103.367 321.679 103.26 322.092 103.18C322.506 103.087 322.926 103.04 323.352 103.04C324.686 103.04 325.672 103.407 326.312 104.14C326.966 104.86 327.292 105.827 327.292 107.04V113H325.952L325.812 111.68H325.752C325.205 112.107 324.599 112.473 323.932 112.78C323.279 113.087 322.606 113.24 321.912 113.24ZM322.352 111.92C322.912 111.92 323.459 111.8 323.992 111.56C324.539 111.307 325.092 110.947 325.652 110.48V107.92C324.612 108 323.739 108.113 323.032 108.26C322.339 108.407 321.779 108.587 321.352 108.8C320.939 109 320.646 109.233 320.472 109.5C320.299 109.753 320.212 110.04 320.212 110.36C320.212 110.64 320.272 110.88 320.392 111.08C320.512 111.267 320.666 111.427 320.852 111.56C321.052 111.68 321.279 111.773 321.532 111.84C321.799 111.893 322.072 111.92 322.352 111.92Z" fill="#1D1D1D"/>
<path d="M330.844 117.1V103.28H332.204L332.344 104.52H332.404C332.858 104.093 333.378 103.74 333.964 103.46C334.564 103.18 335.164 103.04 335.764 103.04C336.418 103.04 336.991 103.16 337.484 103.4C337.991 103.627 338.411 103.96 338.744 104.4C339.091 104.827 339.351 105.347 339.524 105.96C339.698 106.56 339.784 107.24 339.784 108C339.784 108.827 339.664 109.567 339.424 110.22C339.184 110.86 338.858 111.407 338.444 111.86C338.044 112.313 337.578 112.66 337.044 112.9C336.511 113.127 335.951 113.24 335.364 113.24C334.911 113.24 334.418 113.133 333.884 112.92C333.364 112.693 332.891 112.38 332.464 111.98H332.404L332.484 113.82V117.1H330.844ZM335.084 111.86C335.964 111.86 336.684 111.52 337.244 110.84C337.804 110.16 338.084 109.213 338.084 108C338.084 107.467 338.031 106.98 337.924 106.54C337.818 106.1 337.651 105.727 337.424 105.42C337.211 105.1 336.931 104.853 336.584 104.68C336.238 104.507 335.824 104.42 335.344 104.42C334.918 104.42 334.458 104.54 333.964 104.78C333.484 105.007 332.991 105.373 332.484 105.88V110.72C332.951 111.133 333.418 111.427 333.884 111.6C334.351 111.773 334.751 111.86 335.084 111.86Z" fill="#1D1D1D"/>
<path d="M342.837 117.1V103.28H344.197L344.337 104.52H344.397C344.85 104.093 345.37 103.74 345.957 103.46C346.557 103.18 347.157 103.04 347.757 103.04C348.41 103.04 348.983 103.16 349.477 103.4C349.983 103.627 350.403 103.96 350.737 104.4C351.083 104.827 351.343 105.347 351.517 105.96C351.69 106.56 351.777 107.24 351.777 108C351.777 108.827 351.657 109.567 351.417 110.22C351.177 110.86 350.85 111.407 350.437 111.86C350.037 112.313 349.57 112.66 349.037 112.9C348.503 113.127 347.943 113.24 347.357 113.24C346.903 113.24 346.41 113.133 345.877 112.92C345.357 112.693 344.883 112.38 344.457 111.98H344.397L344.477 113.82V117.1H342.837ZM347.077 111.86C347.957 111.86 348.677 111.52 349.237 110.84C349.797 110.16 350.077 109.213 350.077 108C350.077 107.467 350.023 106.98 349.917 106.54C349.81 106.1 349.643 105.727 349.417 105.42C349.203 105.1 348.923 104.853 348.577 104.68C348.23 104.507 347.817 104.42 347.337 104.42C346.91 104.42 346.45 104.54 345.957 104.78C345.477 105.007 344.983 105.373 344.477 105.88V110.72C344.943 111.133 345.41 111.427 345.877 111.6C346.343 111.773 346.743 111.86 347.077 111.86Z" fill="#1D1D1D"/>
<path d="M361.109 113.24C360.069 113.24 359.275 112.947 358.729 112.36C358.182 111.773 357.909 110.9 357.909 109.74V100.1H354.449V98.76H359.549V109.86C359.549 110.58 359.722 111.1 360.069 111.42C360.415 111.727 360.882 111.88 361.469 111.88C362.042 111.88 362.649 111.733 363.289 111.44L363.709 112.66C363.255 112.847 362.842 112.987 362.469 113.08C362.095 113.187 361.642 113.24 361.109 113.24Z" fill="#1D1D1D"/>
<path d="M371.561 113.24C370.828 113.24 370.141 113.127 369.501 112.9C368.874 112.673 368.321 112.34 367.841 111.9C367.374 111.46 367.001 110.927 366.721 110.3C366.454 109.66 366.321 108.933 366.321 108.12C366.321 107.333 366.454 106.627 366.721 106C367.001 105.373 367.368 104.84 367.821 104.4C368.288 103.96 368.814 103.627 369.401 103.4C370.001 103.16 370.628 103.04 371.281 103.04C371.974 103.04 372.594 103.153 373.141 103.38C373.701 103.593 374.168 103.9 374.541 104.3C374.928 104.7 375.221 105.18 375.421 105.74C375.621 106.3 375.721 106.92 375.721 107.6C375.721 107.787 375.714 107.967 375.701 108.14C375.688 108.313 375.668 108.467 375.641 108.6H367.981C368.088 109.707 368.488 110.54 369.181 111.1C369.888 111.647 370.748 111.92 371.761 111.92C372.348 111.92 372.874 111.84 373.341 111.68C373.821 111.507 374.281 111.28 374.721 111L375.321 112.08C374.841 112.4 374.288 112.673 373.661 112.9C373.048 113.127 372.348 113.24 371.561 113.24ZM371.321 104.34C370.921 104.34 370.534 104.407 370.161 104.54C369.801 104.673 369.474 104.867 369.181 105.12C368.888 105.36 368.641 105.667 368.441 106.04C368.241 106.413 368.101 106.84 368.021 107.32H374.221C374.154 106.32 373.861 105.573 373.341 105.08C372.834 104.587 372.161 104.34 371.321 104.34Z" fill="#1D1D1D"/>
<path d="M379.093 112.04V110.46L385.113 106.4V106.32L379.093 102.26V100.68L386.553 105.74V106.98L379.093 112.04Z" fill="#1D1D1D"/>
<path d="M314.86 137.04L307.4 131.98V130.74L314.86 125.68V127.26L308.84 131.32V131.4L314.86 135.46V137.04Z" fill="#1D1D1D"/>
<path d="M321.912 138.24C321.459 138.24 321.032 138.173 320.632 138.04C320.232 137.92 319.879 137.747 319.572 137.52C319.279 137.28 319.046 136.993 318.872 136.66C318.699 136.313 318.612 135.92 318.612 135.48C318.612 134.933 318.739 134.46 318.992 134.06C319.259 133.647 319.672 133.293 320.232 133C320.806 132.707 321.539 132.467 322.432 132.28C323.326 132.093 324.399 131.947 325.652 131.84C325.639 131.507 325.586 131.193 325.492 130.9C325.399 130.607 325.252 130.353 325.052 130.14C324.852 129.913 324.586 129.733 324.252 129.6C323.932 129.467 323.539 129.4 323.072 129.4C322.432 129.4 321.819 129.527 321.232 129.78C320.646 130.02 320.125 130.28 319.672 130.56L319.032 129.44C319.272 129.28 319.552 129.12 319.872 128.96C320.206 128.787 320.552 128.633 320.912 128.5C321.286 128.367 321.679 128.26 322.092 128.18C322.506 128.087 322.926 128.04 323.352 128.04C324.686 128.04 325.672 128.407 326.312 129.14C326.966 129.86 327.292 130.827 327.292 132.04V138H325.952L325.812 136.68H325.752C325.205 137.107 324.599 137.473 323.932 137.78C323.279 138.087 322.606 138.24 321.912 138.24ZM322.352 136.92C322.912 136.92 323.459 136.8 323.992 136.56C324.539 136.307 325.092 135.947 325.652 135.48V132.92C324.612 133 323.739 133.113 323.032 133.26C322.339 133.407 321.779 133.587 321.352 133.8C320.939 134 320.646 134.233 320.472 134.5C320.299 134.753 320.212 135.04 320.212 135.36C320.212 135.64 320.272 135.88 320.392 136.08C320.512 136.267 320.666 136.427 320.852 136.56C321.052 136.68 321.279 136.773 321.532 136.84C321.799 136.893 322.072 136.92 322.352 136.92Z" fill="#1D1D1D"/>
<path d="M330.844 142.1V128.28H332.204L332.344 129.52H332.404C332.858 129.093 333.378 128.74 333.964 128.46C334.564 128.18 335.164 128.04 335.764 128.04C336.418 128.04 336.991 128.16 337.484 128.4C337.991 128.627 338.411 128.96 338.744 129.4C339.091 129.827 339.351 130.347 339.524 130.96C339.698 131.56 339.784 132.24 339.784 133C339.784 133.827 339.664 134.567 339.424 135.22C339.184 135.86 338.858 136.407 338.444 136.86C338.044 137.313 337.578 137.66 337.044 137.9C336.511 138.127 335.951 138.24 335.364 138.24C334.911 138.24 334.418 138.133 333.884 137.92C333.364 137.693 332.891 137.38 332.464 136.98H332.404L332.484 138.82V142.1H330.844ZM335.084 136.86C335.964 136.86 336.684 136.52 337.244 135.84C337.804 135.16 338.084 134.213 338.084 133C338.084 132.467 338.031 131.98 337.924 131.54C337.818 131.1 337.651 130.727 337.424 130.42C337.211 130.1 336.931 129.853 336.584 129.68C336.238 129.507 335.824 129.42 335.344 129.42C334.918 129.42 334.458 129.54 333.964 129.78C333.484 130.007 332.991 130.373 332.484 130.88V135.72C332.951 136.133 333.418 136.427 333.884 136.6C334.351 136.773 334.751 136.86 335.084 136.86Z" fill="#1D1D1D"/>
<path d="M342.837 142.1V128.28H344.197L344.337 129.52H344.397C344.85 129.093 345.37 128.74 345.957 128.46C346.557 128.18 347.157 128.04 347.757 128.04C348.41 128.04 348.983 128.16 349.477 128.4C349.983 128.627 350.403 128.96 350.737 129.4C351.083 129.827 351.343 130.347 351.517 130.96C351.69 131.56 351.777 132.24 351.777 133C351.777 133.827 351.657 134.567 351.417 135.22C351.177 135.86 350.85 136.407 350.437 136.86C350.037 137.313 349.57 137.66 349.037 137.9C348.503 138.127 347.943 138.24 347.357 138.24C346.903 138.24 346.41 138.133 345.877 137.92C345.357 137.693 344.883 137.38 344.457 136.98H344.397L344.477 138.82V142.1H342.837ZM347.077 136.86C347.957 136.86 348.677 136.52 349.237 135.84C349.797 135.16 350.077 134.213 350.077 133C350.077 132.467 350.023 131.98 349.917 131.54C349.81 131.1 349.643 130.727 349.417 130.42C349.203 130.1 348.923 129.853 348.577 129.68C348.23 129.507 347.817 129.42 347.337 129.42C346.91 129.42 346.45 129.54 345.957 129.78C345.477 130.007 344.983 130.373 344.477 130.88V135.72C344.943 136.133 345.41 136.427 345.877 136.6C346.343 136.773 346.743 136.86 347.077 136.86Z" fill="#1D1D1D"/>
<path d="M309.92 163.24C309.467 163.24 309.04 163.173 308.64 163.04C308.24 162.92 307.887 162.747 307.58 162.52C307.287 162.28 307.053 161.993 306.88 161.66C306.707 161.313 306.62 160.92 306.62 160.48C306.62 159.933 306.747 159.46 307 159.06C307.267 158.647 307.68 158.293 308.24 158C308.813 157.707 309.547 157.467 310.44 157.28C311.333 157.093 312.407 156.947 313.66 156.84C313.647 156.507 313.593 156.193 313.5 155.9C313.407 155.607 313.26 155.353 313.06 155.14C312.86 154.913 312.593 154.733 312.26 154.6C311.94 154.467 311.547 154.4 311.08 154.4C310.44 154.4 309.827 154.527 309.24 154.78C308.653 155.02 308.133 155.28 307.68 155.56L307.04 154.44C307.28 154.28 307.56 154.12 307.88 153.96C308.213 153.787 308.56 153.633 308.92 153.5C309.293 153.367 309.687 153.26 310.1 153.18C310.513 153.087 310.933 153.04 311.36 153.04C312.693 153.04 313.68 153.407 314.32 154.14C314.973 154.86 315.3 155.827 315.3 157.04V163H313.96L313.82 161.68H313.76C313.213 162.107 312.607 162.473 311.94 162.78C311.287 163.087 310.613 163.24 309.92 163.24ZM310.36 161.92C310.92 161.92 311.467 161.8 312 161.56C312.547 161.307 313.1 160.947 313.66 160.48V157.92C312.62 158 311.747 158.113 311.04 158.26C310.347 158.407 309.787 158.587 309.36 158.8C308.947 159 308.653 159.233 308.48 159.5C308.307 159.753 308.22 160.04 308.22 160.36C308.22 160.64 308.28 160.88 308.4 161.08C308.52 161.267 308.673 161.427 308.86 161.56C309.06 161.68 309.287 161.773 309.54 161.84C309.807 161.893 310.08 161.92 310.36 161.92Z" fill="#1D1D1D"/>
<path d="M318.852 167.1V153.28H320.212L320.352 154.52H320.412C320.866 154.093 321.386 153.74 321.972 153.46C322.572 153.18 323.172 153.04 323.772 153.04C324.426 153.04 324.999 153.16 325.492 153.4C325.999 153.627 326.419 153.96 326.752 154.4C327.099 154.827 327.359 155.347 327.532 155.96C327.705 156.56 327.792 157.24 327.792 158C327.792 158.827 327.672 159.567 327.432 160.22C327.192 160.86 326.866 161.407 326.452 161.86C326.052 162.313 325.586 162.66 325.052 162.9C324.519 163.127 323.959 163.24 323.372 163.24C322.919 163.24 322.425 163.133 321.892 162.92C321.372 162.693 320.899 162.38 320.472 161.98H320.412L320.492 163.82V167.1H318.852ZM323.092 161.86C323.972 161.86 324.692 161.52 325.252 160.84C325.812 160.16 326.092 159.213 326.092 158C326.092 157.467 326.039 156.98 325.932 156.54C325.826 156.1 325.659 155.727 325.432 155.42C325.219 155.1 324.939 154.853 324.592 154.68C324.246 154.507 323.832 154.42 323.352 154.42C322.926 154.42 322.466 154.54 321.972 154.78C321.492 155.007 320.999 155.373 320.492 155.88V160.72C320.959 161.133 321.425 161.427 321.892 161.6C322.359 161.773 322.759 161.86 323.092 161.86Z" fill="#1D1D1D"/>
<path d="M330.844 167.1V153.28H332.204L332.344 154.52H332.404C332.858 154.093 333.378 153.74 333.964 153.46C334.564 153.18 335.164 153.04 335.764 153.04C336.418 153.04 336.991 153.16 337.484 153.4C337.991 153.627 338.411 153.96 338.744 154.4C339.091 154.827 339.351 155.347 339.524 155.96C339.698 156.56 339.784 157.24 339.784 158C339.784 158.827 339.664 159.567 339.424 160.22C339.184 160.86 338.858 161.407 338.444 161.86C338.044 162.313 337.578 162.66 337.044 162.9C336.511 163.127 335.951 163.24 335.364 163.24C334.911 163.24 334.418 163.133 333.884 162.92C333.364 162.693 332.891 162.38 332.464 161.98H332.404L332.484 163.82V167.1H330.844ZM335.084 161.86C335.964 161.86 336.684 161.52 337.244 160.84C337.804 160.16 338.084 159.213 338.084 158C338.084 157.467 338.031 156.98 337.924 156.54C337.818 156.1 337.651 155.727 337.424 155.42C337.211 155.1 336.931 154.853 336.584 154.68C336.238 154.507 335.824 154.42 335.344 154.42C334.918 154.42 334.458 154.54 333.964 154.78C333.484 155.007 332.991 155.373 332.484 155.88V160.72C332.951 161.133 333.418 161.427 333.884 161.6C334.351 161.773 334.751 161.86 335.084 161.86Z" fill="#1D1D1D"/>
<path d="M349.117 163.24C348.077 163.24 347.283 162.947 346.737 162.36C346.19 161.773 345.917 160.9 345.917 159.74V150.1H342.457V148.76H347.557V159.86C347.557 160.58 347.73 161.1 348.077 161.42C348.423 161.727 348.89 161.88 349.477 161.88C350.05 161.88 350.657 161.733 351.297 161.44L351.717 162.66C351.263 162.847 350.85 162.987 350.477 163.08C350.103 163.187 349.65 163.24 349.117 163.24Z" fill="#1D1D1D"/>
<path d="M306.86 192.1V178.28H308.22L308.36 179.52H308.42C308.873 179.093 309.393 178.74 309.98 178.46C310.58 178.18 311.18 178.04 311.78 178.04C312.433 178.04 313.007 178.16 313.5 178.4C314.007 178.627 314.427 178.96 314.76 179.4C315.107 179.827 315.367 180.347 315.54 180.96C315.713 181.56 315.8 182.24 315.8 183C315.8 183.827 315.68 184.567 315.44 185.22C315.2 185.86 314.873 186.407 314.46 186.86C314.06 187.313 313.593 187.66 313.06 187.9C312.527 188.127 311.967 188.24 311.38 188.24C310.927 188.24 310.433 188.133 309.9 187.92C309.38 187.693 308.907 187.38 308.48 186.98H308.42L308.5 188.82V192.1H306.86ZM311.1 186.86C311.98 186.86 312.7 186.52 313.26 185.84C313.82 185.16 314.1 184.213 314.1 183C314.1 182.467 314.047 181.98 313.94 181.54C313.833 181.1 313.667 180.727 313.44 180.42C313.227 180.1 312.947 179.853 312.6 179.68C312.253 179.507 311.84 179.42 311.36 179.42C310.933 179.42 310.473 179.54 309.98 179.78C309.5 180.007 309.007 180.373 308.5 180.88V185.72C308.967 186.133 309.433 186.427 309.9 186.6C310.367 186.773 310.767 186.86 311.1 186.86Z" fill="#1D1D1D"/>
<path d="M318.852 192.1V178.28H320.212L320.352 179.52H320.412C320.866 179.093 321.386 178.74 321.972 178.46C322.572 178.18 323.172 178.04 323.772 178.04C324.426 178.04 324.999 178.16 325.492 178.4C325.999 178.627 326.419 178.96 326.752 179.4C327.099 179.827 327.359 180.347 327.532 180.96C327.705 181.56 327.792 182.24 327.792 183C327.792 183.827 327.672 184.567 327.432 185.22C327.192 185.86 326.866 186.407 326.452 186.86C326.052 187.313 325.586 187.66 325.052 187.9C324.519 188.127 323.959 188.24 323.372 188.24C322.919 188.24 322.425 188.133 321.892 187.92C321.372 187.693 320.899 187.38 320.472 186.98H320.412L320.492 188.82V192.1H318.852ZM323.092 186.86C323.972 186.86 324.692 186.52 325.252 185.84C325.812 185.16 326.092 184.213 326.092 183C326.092 182.467 326.039 181.98 325.932 181.54C325.826 181.1 325.659 180.727 325.432 180.42C325.219 180.1 324.939 179.853 324.592 179.68C324.246 179.507 323.832 179.42 323.352 179.42C322.926 179.42 322.466 179.54 321.972 179.78C321.492 180.007 320.999 180.373 320.492 180.88V185.72C320.959 186.133 321.425 186.427 321.892 186.6C322.359 186.773 322.759 186.86 323.092 186.86Z" fill="#1D1D1D"/>
<path d="M337.124 188.24C336.084 188.24 335.291 187.947 334.744 187.36C334.198 186.773 333.924 185.9 333.924 184.74V175.1H330.464V173.76H335.564V184.86C335.564 185.58 335.738 186.1 336.084 186.42C336.431 186.727 336.898 186.88 337.484 186.88C338.058 186.88 338.664 186.733 339.304 186.44L339.724 187.66C339.271 187.847 338.858 187.987 338.484 188.08C338.111 188.187 337.658 188.24 337.124 188.24Z" fill="#1D1D1D"/>
<path d="M347.577 188.24C346.843 188.24 346.157 188.127 345.517 187.9C344.89 187.673 344.337 187.34 343.857 186.9C343.39 186.46 343.017 185.927 342.737 185.3C342.47 184.66 342.337 183.933 342.337 183.12C342.337 182.333 342.47 181.627 342.737 181C343.017 180.373 343.383 179.84 343.837 179.4C344.303 178.96 344.83 178.627 345.417 178.4C346.017 178.16 346.643 178.04 347.297 178.04C347.99 178.04 348.61 178.153 349.157 178.38C349.717 178.593 350.183 178.9 350.557 179.3C350.943 179.7 351.237 180.18 351.437 180.74C351.637 181.3 351.737 181.92 351.737 182.6C351.737 182.787 351.73 182.967 351.717 183.14C351.703 183.313 351.683 183.467 351.657 183.6H343.997C344.103 184.707 344.503 185.54 345.197 186.1C345.903 186.647 346.763 186.92 347.777 186.92C348.363 186.92 348.89 186.84 349.357 186.68C349.837 186.507 350.297 186.28 350.737 186L351.337 187.08C350.857 187.4 350.303 187.673 349.677 187.9C349.063 188.127 348.363 188.24 347.577 188.24ZM347.337 179.34C346.937 179.34 346.55 179.407 346.177 179.54C345.817 179.673 345.49 179.867 345.197 180.12C344.903 180.36 344.657 180.667 344.457 181.04C344.257 181.413 344.117 181.84 344.037 182.32H350.237C350.17 181.32 349.877 180.573 349.357 180.08C348.85 179.587 348.177 179.34 347.337 179.34Z" fill="#1D1D1D"/>
<path d="M306.86 217.1V203.28H308.22L308.36 204.52H308.42C308.873 204.093 309.393 203.74 309.98 203.46C310.58 203.18 311.18 203.04 311.78 203.04C312.433 203.04 313.007 203.16 313.5 203.4C314.007 203.627 314.427 203.96 314.76 204.4C315.107 204.827 315.367 205.347 315.54 205.96C315.713 206.56 315.8 207.24 315.8 208C315.8 208.827 315.68 209.567 315.44 210.22C315.2 210.86 314.873 211.407 314.46 211.86C314.06 212.313 313.593 212.66 313.06 212.9C312.527 213.127 311.967 213.24 311.38 213.24C310.927 213.24 310.433 213.133 309.9 212.92C309.38 212.693 308.907 212.38 308.48 211.98H308.42L308.5 213.82V217.1H306.86ZM311.1 211.86C311.98 211.86 312.7 211.52 313.26 210.84C313.82 210.16 314.1 209.213 314.1 208C314.1 207.467 314.047 206.98 313.94 206.54C313.833 206.1 313.667 205.727 313.44 205.42C313.227 205.1 312.947 204.853 312.6 204.68C312.253 204.507 311.84 204.42 311.36 204.42C310.933 204.42 310.473 204.54 309.98 204.78C309.5 205.007 309.007 205.373 308.5 205.88V210.72C308.967 211.133 309.433 211.427 309.9 211.6C310.367 211.773 310.767 211.86 311.1 211.86Z" fill="#1D1D1D"/>
<path d="M325.132 213.24C324.092 213.24 323.299 212.947 322.752 212.36C322.205 211.773 321.932 210.9 321.932 209.74V200.1H318.472V198.76H323.572V209.86C323.572 210.58 323.746 211.1 324.092 211.42C324.439 211.727 324.906 211.88 325.492 211.88C326.066 211.88 326.672 211.733 327.312 211.44L327.732 212.66C327.279 212.847 326.866 212.987 326.492 213.08C326.119 213.187 325.666 213.24 325.132 213.24Z" fill="#1D1D1D"/>
<path d="M335.584 213.24C334.851 213.24 334.164 213.127 333.524 212.9C332.898 212.673 332.344 212.34 331.864 211.9C331.398 211.46 331.024 210.927 330.744 210.3C330.478 209.66 330.344 208.933 330.344 208.12C330.344 207.333 330.478 206.627 330.744 206C331.024 205.373 331.391 204.84 331.844 204.4C332.311 203.96 332.838 203.627 333.424 203.4C334.024 203.16 334.651 203.04 335.304 203.04C335.998 203.04 336.618 203.153 337.164 203.38C337.724 203.593 338.191 203.9 338.564 204.3C338.951 204.7 339.244 205.18 339.444 205.74C339.644 206.3 339.744 206.92 339.744 207.6C339.744 207.787 339.738 207.967 339.724 208.14C339.711 208.313 339.691 208.467 339.664 208.6H332.004C332.111 209.707 332.511 210.54 333.204 211.1C333.911 211.647 334.771 211.92 335.784 211.92C336.371 211.92 336.898 211.84 337.364 211.68C337.844 211.507 338.304 211.28 338.744 211L339.344 212.08C338.864 212.4 338.311 212.673 337.684 212.9C337.071 213.127 336.371 213.24 335.584 213.24ZM335.344 204.34C334.944 204.34 334.558 204.407 334.184 204.54C333.824 204.673 333.498 204.867 333.204 205.12C332.911 205.36 332.664 205.667 332.464 206.04C332.264 206.413 332.124 206.84 332.044 207.32H338.244C338.178 206.32 337.884 205.573 337.364 205.08C336.858 204.587 336.184 204.34 335.344 204.34Z" fill="#1D1D1D"/>
<path d="M343.117 212.04V210.46L349.137 206.4V206.32L343.117 202.26V200.68L350.577 205.74V206.98L343.117 212.04Z" fill="#1D1D1D"/>
<path d="M622.256 10.56C622.536 12.2 623.956 13.18 625.896 13.18C627.796 13.18 629.196 12.18 629.196 10.5C629.196 9.26 628.456 8.42 626.936 8.02L625.216 7.6C624.376 7.36 623.976 7.08 623.976 6.48C623.976 5.62 624.796 5.2 625.676 5.2C626.756 5.2 627.376 5.66 627.636 6.46H629.136C628.816 4.9 627.656 3.94 625.696 3.94C623.896 3.94 622.516 4.98 622.516 6.56C622.516 7.94 623.396 8.58 624.656 8.9L626.416 9.36C627.336 9.6 627.736 9.98 627.736 10.6C627.736 11.5 626.976 11.92 625.916 11.92C624.876 11.92 624.096 11.48 623.816 10.56H622.256Z" fill="#1D1D1D"/>
<path d="M638.357 4.12H636.837V10.14C636.517 11.1 635.657 11.8 634.617 11.8C633.277 11.8 632.677 10.94 632.677 9.7V4.12H631.157V9.94C631.157 11.88 632.237 13.18 634.257 13.18C635.397 13.18 636.337 12.58 636.837 11.88V13H638.357V4.12Z" fill="#1D1D1D"/>
<path d="M642.524 11.96C642.964 12.6 643.924 13.18 645.024 13.18C647.624 13.18 649.024 11.08 649.024 8.56C649.024 6.06 647.624 3.94 645.024 3.94C643.924 3.94 642.964 4.52 642.524 5.16V0H641.004V13H642.524V11.96ZM642.524 6.76C642.984 5.84 643.864 5.3 644.804 5.3C646.504 5.3 647.504 6.68 647.504 8.56C647.504 10.44 646.504 11.82 644.804 11.82C643.864 11.82 642.984 11.28 642.524 10.36V6.76Z" fill="#1D1D1D"/>
<path d="M656.703 4.12H655.363L653.543 10.9L651.583 4.12H650.083L652.703 13H654.163L656.023 6.26L657.863 13H659.323L661.943 4.12H660.483L658.523 10.9L656.703 4.12Z" fill="#1D1D1D"/>
<path d="M671.161 8.56C671.161 5.84 669.501 3.94 667.081 3.94C664.641 3.94 663.001 5.84 663.001 8.56C663.001 11.28 664.641 13.18 667.081 13.18C669.501 13.18 671.161 11.28 671.161 8.56ZM669.641 8.56C669.641 10.5 668.681 11.86 667.081 11.86C665.481 11.86 664.521 10.5 664.521 8.56C664.521 6.62 665.481 5.26 667.081 5.26C668.681 5.26 669.641 6.62 669.641 8.56Z" fill="#1D1D1D"/>
<path d="M677.752 4.08C677.592 4 677.272 3.94 676.892 3.94C675.912 3.94 675.072 4.52 674.692 5.28V4.12H673.192V13H674.692V7.04C674.992 6 675.812 5.38 676.752 5.38C677.132 5.38 677.512 5.46 677.752 5.62V4.08Z" fill="#1D1D1D"/>
<path d="M685.223 13H686.743V0H685.223V5.16C684.783 4.52 683.823 3.94 682.723 3.94C680.123 3.94 678.723 6.06 678.723 8.56C678.723 11.08 680.123 13.18 682.723 13.18C683.823 13.18 684.783 12.6 685.223 11.96V13ZM685.223 10.36C684.763 11.28 683.883 11.82 682.943 11.82C681.243 11.82 680.243 10.44 680.243 8.56C680.243 6.68 681.243 5.3 682.943 5.3C683.883 5.3 684.763 5.84 685.223 6.76V10.36Z" fill="#1D1D1D"/>
<path d="M688.662 10.56C688.942 12.2 690.362 13.18 692.302 13.18C694.202 13.18 695.602 12.18 695.602 10.5C695.602 9.26 694.862 8.42 693.342 8.02L691.622 7.6C690.782 7.36 690.382 7.08 690.382 6.48C690.382 5.62 691.202 5.2 692.082 5.2C693.162 5.2 693.782 5.66 694.042 6.46H695.542C695.222 4.9 694.062 3.94 692.102 3.94C690.302 3.94 688.922 4.98 688.922 6.56C688.922 7.94 689.802 8.58 691.062 8.9L692.822 9.36C693.742 9.6 694.142 9.98 694.142 10.6C694.142 11.5 693.382 11.92 692.322 11.92C691.282 11.92 690.502 11.48 690.222 10.56H688.662Z" fill="#1D1D1D"/>
<path d="M81.6694 5.12H80.3294L78.5094 11.9L76.5494 5.12H75.0494L77.6694 14H79.1294L80.9894 7.26L82.8294 14H84.2894L86.9094 5.12H85.4494L83.4894 11.9L81.6694 5.12Z" fill="#1D1D1D"/>
<path d="M96.1276 9.56C96.1276 6.84 94.4676 4.94 92.0476 4.94C89.6076 4.94 87.9676 6.84 87.9676 9.56C87.9676 12.28 89.6076 14.18 92.0476 14.18C94.4676 14.18 96.1276 12.28 96.1276 9.56ZM94.6076 9.56C94.6076 11.5 93.6476 12.86 92.0476 12.86C90.4476 12.86 89.4876 11.5 89.4876 9.56C89.4876 7.62 90.4476 6.26 92.0476 6.26C93.6476 6.26 94.6076 7.62 94.6076 9.56Z" fill="#1D1D1D"/>
<path d="M102.718 5.08C102.558 5 102.238 4.94 101.858 4.94C100.878 4.94 100.038 5.52 99.6583 6.28V5.12H98.1583V14H99.6583V8.04C99.9583 7 100.778 6.38 101.718 6.38C102.098 6.38 102.478 6.46 102.718 6.62V5.08Z" fill="#1D1D1D"/>
<path d="M110.19 14H111.71V1H110.19V6.16C109.75 5.52 108.79 4.94 107.69 4.94C105.09 4.94 103.69 7.06 103.69 9.56C103.69 12.08 105.09 14.18 107.69 14.18C108.79 14.18 109.75 13.6 110.19 12.96V14ZM110.19 11.36C109.73 12.28 108.85 12.82 107.91 12.82C106.21 12.82 105.21 11.44 105.21 9.56C105.21 7.68 106.21 6.3 107.91 6.3C108.85 6.3 109.73 6.84 110.19 7.76V11.36Z" fill="#1D1D1D"/>
<path d="M113.629 11.56C113.909 13.2 115.329 14.18 117.269 14.18C119.169 14.18 120.569 13.18 120.569 11.5C120.569 10.26 119.829 9.42 118.309 9.02L116.589 8.6C115.749 8.36 115.349 8.08 115.349 7.48C115.349 6.62 116.169 6.2 117.049 6.2C118.129 6.2 118.749 6.66 119.009 7.46H120.509C120.189 5.9 119.029 4.94 117.069 4.94C115.269 4.94 113.889 5.98 113.889 7.56C113.889 8.94 114.769 9.58 116.029 9.9L117.789 10.36C118.709 10.6 119.109 10.98 119.109 11.6C119.109 12.5 118.349 12.92 117.289 12.92C116.249 12.92 115.469 12.48 115.189 11.56H113.629Z" fill="#1D1D1D"/>
</svg>
